  0
SECTION
  2
HEADER
  9
$ACADVER
  1
AC1018
  9
$HANDSEED
  5
FFFFFFFF
  9
$ANGBASE
  50
0.0
  9
$ANGDIR
  70
1
  9
$MEASUREMENT
  70
1
  9
$INSUNITS
  70
4
  0
ENDSEC
  0
SECTION
  2
TABLES
  0
TABLE
  2
APPID
  5
1
330
0
100
AcDbSymbolTable
 70
1
  0
APPID
  5
2
330
1
100
AcDbSymbolTableRecord
100
AcDbRegAppTableRecord
  2
ACAD
 70
0
  0
ENDTAB
  0
TABLE
  2
LTYPE
  5
3
330
0
100
AcDbSymbolTable
 70
6
  0
LTYPE
  5
4
330
3
100
AcDbSymbolTableRecord
100
AcDbLinetypeTableRecord
  2
ByBlock
 70
0
  3

 72
65
 73
0
 40
0
  0
LTYPE
  5
5
330
3
100
AcDbSymbolTableRecord
100
AcDbLinetypeTableRecord
  2
ByLayer
 70
0
  3

 72
65
 73
0
 40
0
  0
LTYPE
  5
6
330
3
100
AcDbSymbolTableRecord
100
AcDbLinetypeTableRecord
  2
CONTINUOUS
 70
0
  3
Solid line
 72
65
 73
0
 40
0
  0
LTYPE
  5
7
330
3
100
AcDbSymbolTableRecord
100
AcDbLinetypeTableRecord
  2
DASHDOT
 70
0
  3
Dash Dot ____ _ ____ _
 72
65
 73
4
 40
2
 49
1.25
 74
0
 49
-0.25
 74
0
 49
0.25
 74
0
 49
-0.25
 74
0
  0
LTYPE
  5
8
330
3
100
AcDbSymbolTableRecord
100
AcDbLinetypeTableRecord
  2
DASHED
 70
0
  3
Dashed __ __ __ __ __
 72
65
 73
2
 40
0.75
 49
0.5
 74
0
 49
-0.25
 74
0
  0
LTYPE
  5
9
330
3
100
AcDbSymbolTableRecord
100
AcDbLinetypeTableRecord
  2
DOTTED
 70
0
  3
Dotted .  .  .  .
 72
65
 73
2
 40
0.2
 49
0.0
 74
0
 49
-0.2
 74
0
  0
ENDTAB
  0
TABLE
  2
STYLE
  5
A
330
0
100
AcDbSymbolTable
 70
4
  0
STYLE
  5
B
330
A
100
AcDbSymbolTableRecord
100
AcDbTextStyleTableRecord
  2
KICAD
 70
0
 40
0
 41
1
 42
1
 50
0
 71
0
  3
isocp.shx
  0
STYLE
  5
C
330
A
100
AcDbSymbolTableRecord
100
AcDbTextStyleTableRecord
  2
KICADB
 70
0
 40
0
 41
1
 42
1
 50
0
 71
0
  3
isocp.shx
  0
STYLE
  5
D
330
A
100
AcDbSymbolTableRecord
100
AcDbTextStyleTableRecord
  2
KICADI
 70
0
 40
0
 41
1
 42
1
 50
15
 71
0
  3
isocp.shx
  0
STYLE
  5
E
330
A
100
AcDbSymbolTableRecord
100
AcDbTextStyleTableRecord
  2
KICADBI
 70
0
 40
0
 41
1
 42
1
 50
15
 71
0
  3
isocp.shx
  0
ENDTAB
  0
TABLE
  2
LAYER
  5
F
330
0
100
AcDbSymbolTable
 70
3
  0
LAYER
  5
12
330
F
100
AcDbSymbolTableRecord
100
AcDbLayerTableRecord
  2
0
 70
0
 62
7
  6
CONTINUOUS
390
10
  0
LAYER
  5
13
330
F
100
AcDbSymbolTableRecord
100
AcDbLayerTableRecord
  2
Edge.Cuts
 70
0
 62
254
420
13685453
  6
CONTINUOUS
390
10
  0
LAYER
  5
14
330
F
100
AcDbSymbolTableRecord
100
AcDbLayerTableRecord
  2
F.Courtyard
 70
0
 62
6
420
16721634
  6
CONTINUOUS
390
10
  0
ENDTAB
  0
TABLE
  2
VPORT
  5
15
330
0
100
AcDbSymbolTable
 70
0
  0
ENDTAB
  0
TABLE
  2
VIEW
  5
16
330
0
100
AcDbSymbolTable
 70
0
  0
ENDTAB
  0
TABLE
  2
UCS
  5
17
330
0
100
AcDbSymbolTable
 70
0
  0
ENDTAB
  0
TABLE
  2
DIMSTYLE
  5
18
330
0
100
AcDbSymbolTable
 70
1
100
AcDbDimStyleTable
 71
0
  0
DIMSTYLE
105
19
330
18
100
AcDbSymbolTableRecord
100
AcDbDimStyleTableRecord
  2
Standard
 70
0
  0
ENDTAB
  0
TABLE
  2
BLOCK_RECORD
  5
1A
330
0
100
AcDbSymbolTable
 70
3
  0
BLOCK_RECORD
  5
1B
330
1A
100
AcDbSymbolTableRecord
100
AcDbBlockTableRecord
  2
*Model_Space
340
1E
 70
0
280
1
281
0
  0
BLOCK_RECORD
  5
1C
330
1A
100
AcDbSymbolTableRecord
100
AcDbBlockTableRecord
  2
*Paper_Space
340
1F
 70
0
280
1
281
0
  0
BLOCK_RECORD
  5
1D
330
1A
100
AcDbSymbolTableRecord
100
AcDbBlockTableRecord
  2
*Paper_Space0
340
20
 70
0
280
1
281
0
  0
ENDTAB
  0
ENDSEC
  0
SECTION
  2
BLOCKS
  0
BLOCK
  5
24
330
1B
100
AcDbEntity
  8
0
100
AcDbBlockBegin
  2
*Model_Space
 70
0
 10
0.0
 20
0.0
 30
0.0
  3
*Model_Space
  1

  0
ENDBLK
  5
23
330
1B
100
AcDbEntity
  8
0
100
AcDbBlockEnd
  0
BLOCK
  5
26
330
1C
100
AcDbEntity
 67
1
  8
0
100
AcDbBlockBegin
  2
*Paper_Space
 70
0
 10
0.0
 20
0.0
 30
0.0
  3
*Paper_Space
  1

  0
ENDBLK
  5
25
330
1C
100
AcDbEntity
 67
1
  8
0
100
AcDbBlockEnd
  0
BLOCK
  5
28
330
1D
100
AcDbEntity
 67
1
  8
0
100
AcDbBlockBegin
  2
*Paper_Space0
 70
0
 10
0.0
 20
0.0
 30
0.0
  3
*Paper_Space0
  1

  0
ENDBLK
  5
27
330
1D
100
AcDbEntity
 67
1
  8
0
100
AcDbBlockEnd
  0
ENDSEC
  0
SECTION
  2
ENTITIES
  0
ARC
  5
29
330
1B
100
AcDbEntity
  8
Edge.Cuts
100
AcDbCircle
 10
25.
 20
-23.
 30
0
 40
6.
100
AcDbArc
 50
90.00000000
 51
180.00000000
  0
LINE
  5
2A
330
1B
100
AcDbEntity
  8
Edge.Cuts
  6
CONTINUOUS
100
AcDbLine
 10
19.
 20
-117.
 30
0
 11
19.
 21
-23.
 31
0
  0
LINE
  5
2B
330
1B
100
AcDbEntity
  8
Edge.Cuts
  6
CONTINUOUS
100
AcDbLine
 10
25.
 20
-17.
 30
0
 11
125.
 21
-17.
 31
0
  0
ARC
  5
2C
330
1B
100
AcDbEntity
  8
Edge.Cuts
100
AcDbCircle
 10
25.
 20
-117.
 30
0
 40
6.
100
AcDbArc
 50
-180.00000000
 51
-90.00000000
  0
LINE
  5
2D
330
1B
100
AcDbEntity
  8
Edge.Cuts
  6
CONTINUOUS
100
AcDbLine
 10
114.5
 20
-123.
 30
0
 11
25.
 21
-123.
 31
0
  0
ARC
  5
2E
330
1B
100
AcDbEntity
  8
Edge.Cuts
100
AcDbCircle
 10
125.
 20
-23.
 30
0
 40
6.
100
AcDbArc
 50
0.00000000
 51
90.00000000
  0
ARC
  5
2F
330
1B
100
AcDbEntity
  8
Edge.Cuts
100
AcDbCircle
 10
134.
 20
-23.
 30
0
 40
3.
100
AcDbArc
 50
-180.00000000
 51
-90.00000000
  0
ARC
  5
30
330
1B
100
AcDbEntity
  8
Edge.Cuts
100
AcDbCircle
 10
134.
 20
-28.
 30
0
 40
2.
100
AcDbArc
 50
0.00000000
 51
90.00000000
  0
LINE
  5
31
330
1B
100
AcDbEntity
  8
Edge.Cuts
  6
CONTINUOUS
100
AcDbLine
 10
136.
 20
-28.
 30
0
 11
136.
 21
-65.
 31
0
  0
ARC
  5
32
330
1B
100
AcDbEntity
  8
Edge.Cuts
100
AcDbCircle
 10
140.
 20
-65.
 30
0
 40
4.
100
AcDbArc
 50
-180.00000000
 51
-90.00000000
  0
LINE
  5
33
330
1B
100
AcDbEntity
  8
Edge.Cuts
  6
CONTINUOUS
100
AcDbLine
 10
140.
 20
-69.
 30
0
 11
154.
 21
-69.
 31
0
  0
LINE
  5
34
330
1B
100
AcDbEntity
  8
Edge.Cuts
  6
CONTINUOUS
100
AcDbLine
 10
144.9023509999999817
 20
-140.49926099999999
 30
0
 11
114.5
 21
-123.
 31
0
  0
ARC
  5
35
330
1B
100
AcDbEntity
  8
Edge.Cuts
100
AcDbCircle
 10
146.4018999999999835
 20
-137.9018999999999835
 30
0
 40
2.9991791170918751
100
AcDbArc
 50
-119.99937011
 51
-32.37826951
  0
ARC
  5
36
330
1B
100
AcDbEntity
  8
Edge.Cuts
100
AcDbCircle
 10
154.
 20
-72.
 30
0
 40
3.
100
AcDbArc
 50
0.00000000
 51
90.00000000
  0
LINE
  5
37
330
1B
100
AcDbEntity
  8
Edge.Cuts
  6
CONTINUOUS
100
AcDbLine
 10
157.
 20
-72.
 30
0
 11
157.0000009999999975
 21
-125.5
 31
0
  0
LINE
  5
38
330
1B
100
AcDbEntity
  8
Edge.Cuts
  6
CONTINUOUS
100
AcDbLine
 10
157.0000009999999975
 20
-125.5
 30
0
 11
148.9347999999999956
 21
-139.5079800000000034
 31
0
  0
LINE
  5
39
330
1B
100
AcDbEntity
  8
F.Courtyard
  6
CONTINUOUS
100
AcDbLine
 10
42.
 20
-105.
 30
0
 11
56.
 21
-105.
 31
0
  0
LINE
  5
3A
330
1B
100
AcDbEntity
  8
F.Courtyard
  6
CONTINUOUS
100
AcDbLine
 10
56.
 20
-105.
 30
0
 11
56.
 21
-119.
 31
0
  0
LINE
  5
3B
330
1B
100
AcDbEntity
  8
F.Courtyard
  6
CONTINUOUS
100
AcDbLine
 10
56.
 20
-119.
 30
0
 11
42.
 21
-119.
 31
0
  0
LINE
  5
3C
330
1B
100
AcDbEntity
  8
F.Courtyard
  6
CONTINUOUS
100
AcDbLine
 10
42.
 20
-119.
 30
0
 11
42.
 21
-105.
 31
0
  0
LINE
  5
3D
330
1B
100
AcDbEntity
  8
F.Courtyard
  6
CONTINUOUS
100
AcDbLine
 10
61.
 20
-100.5
 30
0
 11
75.
 21
-100.5
 31
0
  0
LINE
  5
3E
330
1B
100
AcDbEntity
  8
F.Courtyard
  6
CONTINUOUS
100
AcDbLine
 10
75.
 20
-100.5
 30
0
 11
75.
 21
-114.5
 31
0
  0
LINE
  5
3F
330
1B
100
AcDbEntity
  8
F.Courtyard
  6
CONTINUOUS
100
AcDbLine
 10
75.
 20
-114.5
 30
0
 11
61.
 21
-114.5
 31
0
  0
LINE
  5
40
330
1B
100
AcDbEntity
  8
F.Courtyard
  6
CONTINUOUS
100
AcDbLine
 10
61.
 20
-114.5
 30
0
 11
61.
 21
-100.5
 31
0
  0
LINE
  5
41
330
1B
100
AcDbEntity
  8
F.Courtyard
  6
CONTINUOUS
100
AcDbLine
 10
80.
 20
-97.
 30
0
 11
94.
 21
-97.
 31
0
  0
LINE
  5
42
330
1B
100
AcDbEntity
  8
F.Courtyard
  6
CONTINUOUS
100
AcDbLine
 10
94.
 20
-97.
 30
0
 11
94.
 21
-111.
 31
0
  0
LINE
  5
43
330
1B
100
AcDbEntity
  8
F.Courtyard
  6
CONTINUOUS
100
AcDbLine
 10
94.
 20
-111.
 30
0
 11
80.
 21
-111.
 31
0
  0
LINE
  5
44
330
1B
100
AcDbEntity
  8
F.Courtyard
  6
CONTINUOUS
100
AcDbLine
 10
80.
 20
-111.
 30
0
 11
80.
 21
-97.
 31
0
  0
LINE
  5
45
330
1B
100
AcDbEntity
  8
F.Courtyard
  6
CONTINUOUS
100
AcDbLine
 10
99.
 20
-103.5
 30
0
 11
113.
 21
-103.5
 31
0
  0
LINE
  5
46
330
1B
100
AcDbEntity
  8
F.Courtyard
  6
CONTINUOUS
100
AcDbLine
 10
113.
 20
-103.5
 30
0
 11
113.
 21
-117.5
 31
0
  0
LINE
  5
47
330
1B
100
AcDbEntity
  8
F.Courtyard
  6
CONTINUOUS
100
AcDbLine
 10
113.
 20
-117.5
 30
0
 11
99.
 21
-117.5
 31
0
  0
LINE
  5
48
330
1B
100
AcDbEntity
  8
F.Courtyard
  6
CONTINUOUS
100
AcDbLine
 10
99.
 20
-117.5
 30
0
 11
99.
 21
-103.5
 31
0
  0
LINE
  5
49
330
1B
100
AcDbEntity
  8
F.Courtyard
  6
CONTINUOUS
100
AcDbLine
 10
124.937821999999997
 20
-107.437821999999997
 30
0
 11
137.0621779999999887
 21
-114.437821999999997
 31
0
  0
LINE
  5
4A
330
1B
100
AcDbEntity
  8
F.Courtyard
  6
CONTINUOUS
100
AcDbLine
 10
137.0621779999999887
 20
-114.437821999999997
 30
0
 11
130.0621779999999887
 21
-126.5621779999999887
 31
0
  0
LINE
  5
4B
330
1B
100
AcDbEntity
  8
F.Courtyard
  6
CONTINUOUS
100
AcDbLine
 10
130.0621779999999887
 20
-126.5621779999999887
 30
0
 11
117.937821999999997
 21
-119.5621779999999887
 31
0
  0
LINE
  5
4C
330
1B
100
AcDbEntity
  8
F.Courtyard
  6
CONTINUOUS
100
AcDbLine
 10
117.937821999999997
 20
-119.5621779999999887
 30
0
 11
124.937821999999997
 21
-107.437821999999997
 31
0
  0
LINE
  5
4D
330
1B
100
AcDbEntity
  8
F.Courtyard
  6
CONTINUOUS
100
AcDbLine
 10
141.3923049999999932
 20
-116.937821999999997
 30
0
 11
153.5166609999999991
 21
-123.937821999999997
 31
0
  0
LINE
  5
4E
330
1B
100
AcDbEntity
  8
F.Courtyard
  6
CONTINUOUS
100
AcDbLine
 10
153.5166609999999991
 20
-123.937821999999997
 30
0
 11
146.5166609999999991
 21
-136.0621779999999887
 31
0
  0
LINE
  5
4F
330
1B
100
AcDbEntity
  8
F.Courtyard
  6
CONTINUOUS
100
AcDbLine
 10
146.5166609999999991
 20
-136.0621779999999887
 30
0
 11
134.3923049999999932
 21
-129.0621779999999887
 31
0
  0
LINE
  5
50
330
1B
100
AcDbEntity
  8
F.Courtyard
  6
CONTINUOUS
100
AcDbLine
 10
134.3923049999999932
 20
-129.0621779999999887
 30
0
 11
141.3923049999999932
 21
-116.937821999999997
 31
0
  0
LINE
  5
51
330
1B
100
AcDbEntity
  8
F.Courtyard
  6
CONTINUOUS
100
AcDbLine
 10
23.
 20
-86.
 30
0
 11
37.
 21
-86.
 31
0
  0
LINE
  5
52
330
1B
100
AcDbEntity
  8
F.Courtyard
  6
CONTINUOUS
100
AcDbLine
 10
37.
 20
-86.
 30
0
 11
37.
 21
-100.
 31
0
  0
LINE
  5
53
330
1B
100
AcDbEntity
  8
F.Courtyard
  6
CONTINUOUS
100
AcDbLine
 10
37.
 20
-100.
 30
0
 11
23.
 21
-100.
 31
0
  0
LINE
  5
54
330
1B
100
AcDbEntity
  8
F.Courtyard
  6
CONTINUOUS
100
AcDbLine
 10
23.
 20
-100.
 30
0
 11
23.
 21
-86.
 31
0
  0
LINE
  5
55
330
1B
100
AcDbEntity
  8
F.Courtyard
  6
CONTINUOUS
100
AcDbLine
 10
42.
 20
-86.
 30
0
 11
56.
 21
-86.
 31
0
  0
LINE
  5
56
330
1B
100
AcDbEntity
  8
F.Courtyard
  6
CONTINUOUS
100
AcDbLine
 10
56.
 20
-86.
 30
0
 11
56.
 21
-100.
 31
0
  0
LINE
  5
57
330
1B
100
AcDbEntity
  8
F.Courtyard
  6
CONTINUOUS
100
AcDbLine
 10
56.
 20
-100.
 30
0
 11
42.
 21
-100.
 31
0
  0
LINE
  5
58
330
1B
100
AcDbEntity
  8
F.Courtyard
  6
CONTINUOUS
100
AcDbLine
 10
42.
 20
-100.
 30
0
 11
42.
 21
-86.
 31
0
  0
LINE
  5
59
330
1B
100
AcDbEntity
  8
F.Courtyard
  6
CONTINUOUS
100
AcDbLine
 10
61.
 20
-81.5
 30
0
 11
75.
 21
-81.5
 31
0
  0
LINE
  5
5A
330
1B
100
AcDbEntity
  8
F.Courtyard
  6
CONTINUOUS
100
AcDbLine
 10
75.
 20
-81.5
 30
0
 11
75.
 21
-95.5
 31
0
  0
LINE
  5
5B
330
1B
100
AcDbEntity
  8
F.Courtyard
  6
CONTINUOUS
100
AcDbLine
 10
75.
 20
-95.5
 30
0
 11
61.
 21
-95.5
 31
0
  0
LINE
  5
5C
330
1B
100
AcDbEntity
  8
F.Courtyard
  6
CONTINUOUS
100
AcDbLine
 10
61.
 20
-95.5
 30
0
 11
61.
 21
-81.5
 31
0
  0
LINE
  5
5D
330
1B
100
AcDbEntity
  8
F.Courtyard
  6
CONTINUOUS
100
AcDbLine
 10
80.
 20
-78.
 30
0
 11
94.
 21
-78.
 31
0
  0
LINE
  5
5E
330
1B
100
AcDbEntity
  8
F.Courtyard
  6
CONTINUOUS
100
AcDbLine
 10
94.
 20
-78.
 30
0
 11
94.
 21
-92.
 31
0
  0
LINE
  5
5F
330
1B
100
AcDbEntity
  8
F.Courtyard
  6
CONTINUOUS
100
AcDbLine
 10
94.
 20
-92.
 30
0
 11
80.
 21
-92.
 31
0
  0
LINE
  5
60
330
1B
100
AcDbEntity
  8
F.Courtyard
  6
CONTINUOUS
100
AcDbLine
 10
80.
 20
-92.
 30
0
 11
80.
 21
-78.
 31
0
  0
LINE
  5
61
330
1B
100
AcDbEntity
  8
F.Courtyard
  6
CONTINUOUS
100
AcDbLine
 10
99.
 20
-84.5
 30
0
 11
113.
 21
-84.5
 31
0
  0
LINE
  5
62
330
1B
100
AcDbEntity
  8
F.Courtyard
  6
CONTINUOUS
100
AcDbLine
 10
113.
 20
-84.5
 30
0
 11
113.
 21
-98.5
 31
0
  0
LINE
  5
63
330
1B
100
AcDbEntity
  8
F.Courtyard
  6
CONTINUOUS
100
AcDbLine
 10
113.
 20
-98.5
 30
0
 11
99.
 21
-98.5
 31
0
  0
LINE
  5
64
330
1B
100
AcDbEntity
  8
F.Courtyard
  6
CONTINUOUS
100
AcDbLine
 10
99.
 20
-98.5
 30
0
 11
99.
 21
-84.5
 31
0
  0
LINE
  5
65
330
1B
100
AcDbEntity
  8
F.Courtyard
  6
CONTINUOUS
100
AcDbLine
 10
118.
 20
-88.
 30
0
 11
132.
 21
-88.
 31
0
  0
LINE
  5
66
330
1B
100
AcDbEntity
  8
F.Courtyard
  6
CONTINUOUS
100
AcDbLine
 10
132.
 20
-88.
 30
0
 11
132.
 21
-102.
 31
0
  0
LINE
  5
67
330
1B
100
AcDbEntity
  8
F.Courtyard
  6
CONTINUOUS
100
AcDbLine
 10
132.
 20
-102.
 30
0
 11
118.
 21
-102.
 31
0
  0
LINE
  5
68
330
1B
100
AcDbEntity
  8
F.Courtyard
  6
CONTINUOUS
100
AcDbLine
 10
118.
 20
-102.
 30
0
 11
118.
 21
-88.
 31
0
  0
LINE
  5
69
330
1B
100
AcDbEntity
  8
F.Courtyard
  6
CONTINUOUS
100
AcDbLine
 10
23.
 20
-67.
 30
0
 11
37.
 21
-67.
 31
0
  0
LINE
  5
6A
330
1B
100
AcDbEntity
  8
F.Courtyard
  6
CONTINUOUS
100
AcDbLine
 10
37.
 20
-67.
 30
0
 11
37.
 21
-81.
 31
0
  0
LINE
  5
6B
330
1B
100
AcDbEntity
  8
F.Courtyard
  6
CONTINUOUS
100
AcDbLine
 10
37.
 20
-81.
 30
0
 11
23.
 21
-81.
 31
0
  0
LINE
  5
6C
330
1B
100
AcDbEntity
  8
F.Courtyard
  6
CONTINUOUS
100
AcDbLine
 10
23.
 20
-81.
 30
0
 11
23.
 21
-67.
 31
0
  0
LINE
  5
6D
330
1B
100
AcDbEntity
  8
F.Courtyard
  6
CONTINUOUS
100
AcDbLine
 10
42.
 20
-67.
 30
0
 11
56.
 21
-67.
 31
0
  0
LINE
  5
6E
330
1B
100
AcDbEntity
  8
F.Courtyard
  6
CONTINUOUS
100
AcDbLine
 10
56.
 20
-67.
 30
0
 11
56.
 21
-81.
 31
0
  0
LINE
  5
6F
330
1B
100
AcDbEntity
  8
F.Courtyard
  6
CONTINUOUS
100
AcDbLine
 10
56.
 20
-81.
 30
0
 11
42.
 21
-81.
 31
0
  0
LINE
  5
70
330
1B
100
AcDbEntity
  8
F.Courtyard
  6
CONTINUOUS
100
AcDbLine
 10
42.
 20
-81.
 30
0
 11
42.
 21
-67.
 31
0
  0
LINE
  5
71
330
1B
100
AcDbEntity
  8
F.Courtyard
  6
CONTINUOUS
100
AcDbLine
 10
61.
 20
-62.5
 30
0
 11
75.
 21
-62.5
 31
0
  0
LINE
  5
72
330
1B
100
AcDbEntity
  8
F.Courtyard
  6
CONTINUOUS
100
AcDbLine
 10
75.
 20
-62.5
 30
0
 11
75.
 21
-76.5
 31
0
  0
LINE
  5
73
330
1B
100
AcDbEntity
  8
F.Courtyard
  6
CONTINUOUS
100
AcDbLine
 10
75.
 20
-76.5
 30
0
 11
61.
 21
-76.5
 31
0
  0
LINE
  5
74
330
1B
100
AcDbEntity
  8
F.Courtyard
  6
CONTINUOUS
100
AcDbLine
 10
61.
 20
-76.5
 30
0
 11
61.
 21
-62.5
 31
0
  0
LINE
  5
75
330
1B
100
AcDbEntity
  8
F.Courtyard
  6
CONTINUOUS
100
AcDbLine
 10
80.
 20
-59.
 30
0
 11
94.
 21
-59.
 31
0
  0
LINE
  5
76
330
1B
100
AcDbEntity
  8
F.Courtyard
  6
CONTINUOUS
100
AcDbLine
 10
94.
 20
-59.
 30
0
 11
94.
 21
-73.
 31
0
  0
LINE
  5
77
330
1B
100
AcDbEntity
  8
F.Courtyard
  6
CONTINUOUS
100
AcDbLine
 10
94.
 20
-73.
 30
0
 11
80.
 21
-73.
 31
0
  0
LINE
  5
78
330
1B
100
AcDbEntity
  8
F.Courtyard
  6
CONTINUOUS
100
AcDbLine
 10
80.
 20
-73.
 30
0
 11
80.
 21
-59.
 31
0
  0
LINE
  5
79
330
1B
100
AcDbEntity
  8
F.Courtyard
  6
CONTINUOUS
100
AcDbLine
 10
99.
 20
-65.5
 30
0
 11
113.
 21
-65.5
 31
0
  0
LINE
  5
7A
330
1B
100
AcDbEntity
  8
F.Courtyard
  6
CONTINUOUS
100
AcDbLine
 10
113.
 20
-65.5
 30
0
 11
113.
 21
-79.5
 31
0
  0
LINE
  5
7B
330
1B
100
AcDbEntity
  8
F.Courtyard
  6
CONTINUOUS
100
AcDbLine
 10
113.
 20
-79.5
 30
0
 11
99.
 21
-79.5
 31
0
  0
LINE
  5
7C
330
1B
100
AcDbEntity
  8
F.Courtyard
  6
CONTINUOUS
100
AcDbLine
 10
99.
 20
-79.5
 30
0
 11
99.
 21
-65.5
 31
0
  0
LINE
  5
7D
330
1B
100
AcDbEntity
  8
F.Courtyard
  6
CONTINUOUS
100
AcDbLine
 10
118.
 20
-69.
 30
0
 11
132.
 21
-69.
 31
0
  0
LINE
  5
7E
330
1B
100
AcDbEntity
  8
F.Courtyard
  6
CONTINUOUS
100
AcDbLine
 10
132.
 20
-69.
 30
0
 11
132.
 21
-83.
 31
0
  0
LINE
  5
7F
330
1B
100
AcDbEntity
  8
F.Courtyard
  6
CONTINUOUS
100
AcDbLine
 10
132.
 20
-83.
 30
0
 11
118.
 21
-83.
 31
0
  0
LINE
  5
80
330
1B
100
AcDbEntity
  8
F.Courtyard
  6
CONTINUOUS
100
AcDbLine
 10
118.
 20
-83.
 30
0
 11
118.
 21
-69.
 31
0
  0
LINE
  5
81
330
1B
100
AcDbEntity
  8
F.Courtyard
  6
CONTINUOUS
100
AcDbLine
 10
23.
 20
-48.
 30
0
 11
37.
 21
-48.
 31
0
  0
LINE
  5
82
330
1B
100
AcDbEntity
  8
F.Courtyard
  6
CONTINUOUS
100
AcDbLine
 10
37.
 20
-48.
 30
0
 11
37.
 21
-62.
 31
0
  0
LINE
  5
83
330
1B
100
AcDbEntity
  8
F.Courtyard
  6
CONTINUOUS
100
AcDbLine
 10
37.
 20
-62.
 30
0
 11
23.
 21
-62.
 31
0
  0
LINE
  5
84
330
1B
100
AcDbEntity
  8
F.Courtyard
  6
CONTINUOUS
100
AcDbLine
 10
23.
 20
-62.
 30
0
 11
23.
 21
-48.
 31
0
  0
LINE
  5
85
330
1B
100
AcDbEntity
  8
F.Courtyard
  6
CONTINUOUS
100
AcDbLine
 10
42.
 20
-48.
 30
0
 11
56.
 21
-48.
 31
0
  0
LINE
  5
86
330
1B
100
AcDbEntity
  8
F.Courtyard
  6
CONTINUOUS
100
AcDbLine
 10
56.
 20
-48.
 30
0
 11
56.
 21
-62.
 31
0
  0
LINE
  5
87
330
1B
100
AcDbEntity
  8
F.Courtyard
  6
CONTINUOUS
100
AcDbLine
 10
56.
 20
-62.
 30
0
 11
42.
 21
-62.
 31
0
  0
LINE
  5
88
330
1B
100
AcDbEntity
  8
F.Courtyard
  6
CONTINUOUS
100
AcDbLine
 10
42.
 20
-62.
 30
0
 11
42.
 21
-48.
 31
0
  0
LINE
  5
89
330
1B
100
AcDbEntity
  8
F.Courtyard
  6
CONTINUOUS
100
AcDbLine
 10
61.
 20
-43.5
 30
0
 11
75.
 21
-43.5
 31
0
  0
LINE
  5
8A
330
1B
100
AcDbEntity
  8
F.Courtyard
  6
CONTINUOUS
100
AcDbLine
 10
75.
 20
-43.5
 30
0
 11
75.
 21
-57.5
 31
0
  0
LINE
  5
8B
330
1B
100
AcDbEntity
  8
F.Courtyard
  6
CONTINUOUS
100
AcDbLine
 10
75.
 20
-57.5
 30
0
 11
61.
 21
-57.5
 31
0
  0
LINE
  5
8C
330
1B
100
AcDbEntity
  8
F.Courtyard
  6
CONTINUOUS
100
AcDbLine
 10
61.
 20
-57.5
 30
0
 11
61.
 21
-43.5
 31
0
  0
LINE
  5
8D
330
1B
100
AcDbEntity
  8
F.Courtyard
  6
CONTINUOUS
100
AcDbLine
 10
80.
 20
-40.
 30
0
 11
94.
 21
-40.
 31
0
  0
LINE
  5
8E
330
1B
100
AcDbEntity
  8
F.Courtyard
  6
CONTINUOUS
100
AcDbLine
 10
94.
 20
-40.
 30
0
 11
94.
 21
-54.
 31
0
  0
LINE
  5
8F
330
1B
100
AcDbEntity
  8
F.Courtyard
  6
CONTINUOUS
100
AcDbLine
 10
94.
 20
-54.
 30
0
 11
80.
 21
-54.
 31
0
  0
LINE
  5
90
330
1B
100
AcDbEntity
  8
F.Courtyard
  6
CONTINUOUS
100
AcDbLine
 10
80.
 20
-54.
 30
0
 11
80.
 21
-40.
 31
0
  0
LINE
  5
91
330
1B
100
AcDbEntity
  8
F.Courtyard
  6
CONTINUOUS
100
AcDbLine
 10
99.
 20
-46.5
 30
0
 11
113.
 21
-46.5
 31
0
  0
LINE
  5
92
330
1B
100
AcDbEntity
  8
F.Courtyard
  6
CONTINUOUS
100
AcDbLine
 10
113.
 20
-46.5
 30
0
 11
113.
 21
-60.5
 31
0
  0
LINE
  5
93
330
1B
100
AcDbEntity
  8
F.Courtyard
  6
CONTINUOUS
100
AcDbLine
 10
113.
 20
-60.5
 30
0
 11
99.
 21
-60.5
 31
0
  0
LINE
  5
94
330
1B
100
AcDbEntity
  8
F.Courtyard
  6
CONTINUOUS
100
AcDbLine
 10
99.
 20
-60.5
 30
0
 11
99.
 21
-46.5
 31
0
  0
LINE
  5
95
330
1B
100
AcDbEntity
  8
F.Courtyard
  6
CONTINUOUS
100
AcDbLine
 10
118.
 20
-50.
 30
0
 11
132.
 21
-50.
 31
0
  0
LINE
  5
96
330
1B
100
AcDbEntity
  8
F.Courtyard
  6
CONTINUOUS
100
AcDbLine
 10
132.
 20
-50.
 30
0
 11
132.
 21
-64.
 31
0
  0
LINE
  5
97
330
1B
100
AcDbEntity
  8
F.Courtyard
  6
CONTINUOUS
100
AcDbLine
 10
132.
 20
-64.
 30
0
 11
118.
 21
-64.
 31
0
  0
LINE
  5
98
330
1B
100
AcDbEntity
  8
F.Courtyard
  6
CONTINUOUS
100
AcDbLine
 10
118.
 20
-64.
 30
0
 11
118.
 21
-50.
 31
0
  0
LINE
  5
99
330
1B
100
AcDbEntity
  8
F.Courtyard
  6
CONTINUOUS
100
AcDbLine
 10
23.
 20
-29.
 30
0
 11
37.
 21
-29.
 31
0
  0
LINE
  5
9A
330
1B
100
AcDbEntity
  8
F.Courtyard
  6
CONTINUOUS
100
AcDbLine
 10
37.
 20
-29.
 30
0
 11
37.
 21
-43.
 31
0
  0
LINE
  5
9B
330
1B
100
AcDbEntity
  8
F.Courtyard
  6
CONTINUOUS
100
AcDbLine
 10
37.
 20
-43.
 30
0
 11
23.
 21
-43.
 31
0
  0
LINE
  5
9C
330
1B
100
AcDbEntity
  8
F.Courtyard
  6
CONTINUOUS
100
AcDbLine
 10
23.
 20
-43.
 30
0
 11
23.
 21
-29.
 31
0
  0
LINE
  5
9D
330
1B
100
AcDbEntity
  8
F.Courtyard
  6
CONTINUOUS
100
AcDbLine
 10
42.
 20
-29.
 30
0
 11
56.
 21
-29.
 31
0
  0
LINE
  5
9E
330
1B
100
AcDbEntity
  8
F.Courtyard
  6
CONTINUOUS
100
AcDbLine
 10
56.
 20
-29.
 30
0
 11
56.
 21
-43.
 31
0
  0
LINE
  5
9F
330
1B
100
AcDbEntity
  8
F.Courtyard
  6
CONTINUOUS
100
AcDbLine
 10
56.
 20
-43.
 30
0
 11
42.
 21
-43.
 31
0
  0
LINE
  5
A0
330
1B
100
AcDbEntity
  8
F.Courtyard
  6
CONTINUOUS
100
AcDbLine
 10
42.
 20
-43.
 30
0
 11
42.
 21
-29.
 31
0
  0
LINE
  5
A1
330
1B
100
AcDbEntity
  8
F.Courtyard
  6
CONTINUOUS
100
AcDbLine
 10
61.
 20
-24.5
 30
0
 11
75.
 21
-24.5
 31
0
  0
LINE
  5
A2
330
1B
100
AcDbEntity
  8
F.Courtyard
  6
CONTINUOUS
100
AcDbLine
 10
75.
 20
-24.5
 30
0
 11
75.
 21
-38.5
 31
0
  0
LINE
  5
A3
330
1B
100
AcDbEntity
  8
F.Courtyard
  6
CONTINUOUS
100
AcDbLine
 10
75.
 20
-38.5
 30
0
 11
61.
 21
-38.5
 31
0
  0
LINE
  5
A4
330
1B
100
AcDbEntity
  8
F.Courtyard
  6
CONTINUOUS
100
AcDbLine
 10
61.
 20
-38.5
 30
0
 11
61.
 21
-24.5
 31
0
  0
LINE
  5
A5
330
1B
100
AcDbEntity
  8
F.Courtyard
  6
CONTINUOUS
100
AcDbLine
 10
80.
 20
-21.
 30
0
 11
94.
 21
-21.
 31
0
  0
LINE
  5
A6
330
1B
100
AcDbEntity
  8
F.Courtyard
  6
CONTINUOUS
100
AcDbLine
 10
94.
 20
-21.
 30
0
 11
94.
 21
-35.
 31
0
  0
LINE
  5
A7
330
1B
100
AcDbEntity
  8
F.Courtyard
  6
CONTINUOUS
100
AcDbLine
 10
94.
 20
-35.
 30
0
 11
80.
 21
-35.
 31
0
  0
LINE
  5
A8
330
1B
100
AcDbEntity
  8
F.Courtyard
  6
CONTINUOUS
100
AcDbLine
 10
80.
 20
-35.
 30
0
 11
80.
 21
-21.
 31
0
  0
LINE
  5
A9
330
1B
100
AcDbEntity
  8
F.Courtyard
  6
CONTINUOUS
100
AcDbLine
 10
99.
 20
-27.5
 30
0
 11
113.
 21
-27.5
 31
0
  0
LINE
  5
AA
330
1B
100
AcDbEntity
  8
F.Courtyard
  6
CONTINUOUS
100
AcDbLine
 10
113.
 20
-27.5
 30
0
 11
113.
 21
-41.5
 31
0
  0
LINE
  5
AB
330
1B
100
AcDbEntity
  8
F.Courtyard
  6
CONTINUOUS
100
AcDbLine
 10
113.
 20
-41.5
 30
0
 11
99.
 21
-41.5
 31
0
  0
LINE
  5
AC
330
1B
100
AcDbEntity
  8
F.Courtyard
  6
CONTINUOUS
100
AcDbLine
 10
99.
 20
-41.5
 30
0
 11
99.
 21
-27.5
 31
0
  0
LINE
  5
AD
330
1B
100
AcDbEntity
  8
F.Courtyard
  6
CONTINUOUS
100
AcDbLine
 10
118.
 20
-31.
 30
0
 11
132.
 21
-31.
 31
0
  0
LINE
  5
AE
330
1B
100
AcDbEntity
  8
F.Courtyard
  6
CONTINUOUS
100
AcDbLine
 10
132.
 20
-31.
 30
0
 11
132.
 21
-45.
 31
0
  0
LINE
  5
AF
330
1B
100
AcDbEntity
  8
F.Courtyard
  6
CONTINUOUS
100
AcDbLine
 10
132.
 20
-45.
 30
0
 11
118.
 21
-45.
 31
0
  0
LINE
  5
B0
330
1B
100
AcDbEntity
  8
F.Courtyard
  6
CONTINUOUS
100
AcDbLine
 10
118.
 20
-45.
 30
0
 11
118.
 21
-31.
 31
0
  0
CIRCLE
  5
B1
330
1B
100
AcDbEntity
  8
F.Courtyard
100
AcDbCircle
 10
151.
 20
-115.
 30
0
 40
1.5999999999999999
  0
CIRCLE
  5
B2
330
1B
100
AcDbEntity
  8
F.Courtyard
100
AcDbCircle
 10
25.
 20
-117.
 30
0
 40
1.5999999999999999
  0
CIRCLE
  5
B3
330
1B
100
AcDbEntity
  8
F.Courtyard
100
AcDbCircle
 10
125.
 20
-23.
 30
0
 40
1.5999999999999999
  0
CIRCLE
  5
B4
330
1B
100
AcDbEntity
  8
F.Courtyard
100
AcDbCircle
 10
25.
 20
-23.
 30
0
 40
1.5999999999999999
  0
ENDSEC
  0
SECTION
  2
OBJECTS
  0
DICTIONARY
  5
21
330
0
100
AcDbDictionary
281
1
  3
ACAD_GROUP
350
B5
  3
ACAD_LAYOUT
350
22
  3
ACAD_PLOTSTYLENAME
350
11
  0
DICTIONARY
  5
B5
330
21
100
AcDbDictionary
281
1
  0
ACDBDICTIONARYWDFLT
  5
11
330
21
100
AcDbDictionary
281
1
  3
Normal
350
10
100
AcDbDictionaryWithDefault
340
10
  0
ACDBPLACEHOLDER
  5
10
330
11
  0
DICTIONARY
  5
22
330
21
100
AcDbDictionary
281
1
  3
Model
350
1E
  3
Layout1
350
1F
  3
Layout2
350
20
  0
LAYOUT
  5
1E
330
22
100
AcDbPlotSettings
  1

  2
none_device
  4
A3
  6

 40
0.0
 41
0.0
 42
0.0
 43
0.0
 44
420.0
 45
297.0
 46
0.0
 47
0.0
 48
0.0
 49
0.0
140
0.0
141
0.0
142
1.0
143
1.0
 70
1024
 72
1
 73
0
 74
5
  7

 75
16
 76
0
 77
2
 78
300
147
1.0
148
0.0
149
0.0
100
AcDbLayout
  1
Model
 70
1
 71
0
 10
0.0
 20
0.0
 11
420.0
 21
297.0
 12
0.0
 22
0.0
 32
0.0
 14
1e+20
 24
1e+20
 34
1e+20
 15
-1e+20
 25
-1e+20
 35
-1e+20
146
0.0
 13
0.0
 23
0.0
 33
0.0
 16
1.0
 26
0.0
 36
0.0
 17
0.0
 27
1.0
 37
0.0
 76
0
330
1B
  0
LAYOUT
  5
1F
330
22
100
AcDbPlotSettings
  1

  2
none_device
  4
A3
  6

 40
0.0
 41
0.0
 42
0.0
 43
0.0
 44
420.0
 45
297.0
 46
0.0
 47
0.0
 48
0.0
 49
0.0
140
0.0
141
0.0
142
1.0
143
1.0
 70
0
 72
1
 73
0
 74
5
  7

 75
16
 76
0
 77
2
 78
300
147
1.0
148
0.0
149
0.0
100
AcDbLayout
  1
Layout1
 70
1
 71
1
 10
0.0
 20
0.0
 11
420.0
 21
297.0
 12
0.0
 22
0.0
 32
0.0
 14
1e+20
 24
1e+20
 34
1e+20
 15
-1e+20
 25
-1e+20
 35
-1e+20
146
0.0
 13
0.0
 23
0.0
 33
0.0
 16
1.0
 26
0.0
 36
0.0
 17
0.0
 27
1.0
 37
0.0
 76
0
330
1C
  0
LAYOUT
  5
20
330
22
100
AcDbPlotSettings
  1

  2
none_device
  4
A3
  6

 40
0.0
 41
0.0
 42
0.0
 43
0.0
 44
420.0
 45
297.0
 46
0.0
 47
0.0
 48
0.0
 49
0.0
140
0.0
141
0.0
142
1.0
143
1.0
 70
0
 72
1
 73
0
 74
5
  7

 75
16
 76
0
 77
2
 78
300
147
1.0
148
0.0
149
0.0
100
AcDbLayout
  1
Layout2
 70
1
 71
2
 10
0.0
 20
0.0
 11
420.0
 21
297.0
 12
0.0
 22
0.0
 32
0.0
 14
1e+20
 24
1e+20
 34
1e+20
 15
-1e+20
 25
-1e+20
 35
-1e+20
146
0.0
 13
0.0
 23
0.0
 33
0.0
 16
1.0
 26
0.0
 36
0.0
 17
0.0
 27
1.0
 37
0.0
 76
0
330
1D
  0
ENDSEC
  0
EOF
