%TF.GenerationSoftware,KiCad,Pcbnew,10.0.4*%
%TF.CreationDate,2026-06-30T14:49:11-04:00*%
%TF.ProjectId,split_keyboard,73706c69-745f-46b6-9579-626f6172642e,rev?*%
%TF.SameCoordinates,Original*%
%TF.FileFunction,Legend,Top*%
%TF.FilePolarity,Positive*%
%FSLAX46Y46*%
G04 Gerber Fmt 4.6, Leading zero omitted, Abs format (unit mm)*
G04 Created by KiCad (PCBNEW 10.0.4) date 2026-06-30 14:49:11*
%MOMM*%
%LPD*%
G01*
G04 APERTURE LIST*
G04 Aperture macros list*
%AMHorizOval*
0 Thick line with rounded ends*
0 $1 width*
0 $2 $3 position (X,Y) of the first rounded end (center of the circle)*
0 $4 $5 position (X,Y) of the second rounded end (center of the circle)*
0 Add line between two ends*
20,1,$1,$2,$3,$4,$5,0*
0 Add two circle primitives to create the rounded ends*
1,1,$1,$2,$3*
1,1,$1,$4,$5*%
G04 Aperture macros list end*
%ADD10C,0.150000*%
%ADD11C,0.140000*%
%ADD12HorizOval,1.800000X-0.150000X0.259808X0.150000X-0.259808X0*%
%ADD13C,5.250000*%
%ADD14C,0.600000*%
%ADD15C,5.600000*%
%ADD16C,0.800000*%
%ADD17O,2.000000X1.600000*%
%ADD18O,1.800000X2.400000*%
%ADD19HorizOval,1.800000X-0.150000X-0.259808X0.150000X0.259808X0*%
G04 APERTURE END LIST*
D10*
X139666666Y-32704819D02*
X139333333Y-32228628D01*
X139095238Y-32704819D02*
X139095238Y-31704819D01*
X139095238Y-31704819D02*
X139476190Y-31704819D01*
X139476190Y-31704819D02*
X139571428Y-31752438D01*
X139571428Y-31752438D02*
X139619047Y-31800057D01*
X139619047Y-31800057D02*
X139666666Y-31895295D01*
X139666666Y-31895295D02*
X139666666Y-32038152D01*
X139666666Y-32038152D02*
X139619047Y-32133390D01*
X139619047Y-32133390D02*
X139571428Y-32181009D01*
X139571428Y-32181009D02*
X139476190Y-32228628D01*
X139476190Y-32228628D02*
X139095238Y-32228628D01*
X140095238Y-32181009D02*
X140428571Y-32181009D01*
X140571428Y-32704819D02*
X140095238Y-32704819D01*
X140095238Y-32704819D02*
X140095238Y-31704819D01*
X140095238Y-31704819D02*
X140571428Y-31704819D01*
X141333333Y-32181009D02*
X141000000Y-32181009D01*
X141000000Y-32704819D02*
X141000000Y-31704819D01*
X141000000Y-31704819D02*
X141476190Y-31704819D01*
X142000000Y-31704819D02*
X142000000Y-31942914D01*
X141761905Y-31847676D02*
X142000000Y-31942914D01*
X142000000Y-31942914D02*
X142238095Y-31847676D01*
X141857143Y-32133390D02*
X142000000Y-31942914D01*
X142000000Y-31942914D02*
X142142857Y-32133390D01*
X142761905Y-31704819D02*
X142761905Y-31942914D01*
X142523810Y-31847676D02*
X142761905Y-31942914D01*
X142761905Y-31942914D02*
X143000000Y-31847676D01*
X142619048Y-32133390D02*
X142761905Y-31942914D01*
X142761905Y-31942914D02*
X142904762Y-32133390D01*
X306666666Y-126704819D02*
X306333333Y-126228628D01*
X306095238Y-126704819D02*
X306095238Y-125704819D01*
X306095238Y-125704819D02*
X306476190Y-125704819D01*
X306476190Y-125704819D02*
X306571428Y-125752438D01*
X306571428Y-125752438D02*
X306619047Y-125800057D01*
X306619047Y-125800057D02*
X306666666Y-125895295D01*
X306666666Y-125895295D02*
X306666666Y-126038152D01*
X306666666Y-126038152D02*
X306619047Y-126133390D01*
X306619047Y-126133390D02*
X306571428Y-126181009D01*
X306571428Y-126181009D02*
X306476190Y-126228628D01*
X306476190Y-126228628D02*
X306095238Y-126228628D01*
X307095238Y-126181009D02*
X307428571Y-126181009D01*
X307571428Y-126704819D02*
X307095238Y-126704819D01*
X307095238Y-126704819D02*
X307095238Y-125704819D01*
X307095238Y-125704819D02*
X307571428Y-125704819D01*
X308333333Y-126181009D02*
X308000000Y-126181009D01*
X308000000Y-126704819D02*
X308000000Y-125704819D01*
X308000000Y-125704819D02*
X308476190Y-125704819D01*
X309000000Y-125704819D02*
X309000000Y-125942914D01*
X308761905Y-125847676D02*
X309000000Y-125942914D01*
X309000000Y-125942914D02*
X309238095Y-125847676D01*
X308857143Y-126133390D02*
X309000000Y-125942914D01*
X309000000Y-125942914D02*
X309142857Y-126133390D01*
X309761905Y-125704819D02*
X309761905Y-125942914D01*
X309523810Y-125847676D02*
X309761905Y-125942914D01*
X309761905Y-125942914D02*
X310000000Y-125847676D01*
X309619048Y-126133390D02*
X309761905Y-125942914D01*
X309761905Y-125942914D02*
X309904762Y-126133390D01*
X165666666Y-124704819D02*
X165333333Y-124228628D01*
X165095238Y-124704819D02*
X165095238Y-123704819D01*
X165095238Y-123704819D02*
X165476190Y-123704819D01*
X165476190Y-123704819D02*
X165571428Y-123752438D01*
X165571428Y-123752438D02*
X165619047Y-123800057D01*
X165619047Y-123800057D02*
X165666666Y-123895295D01*
X165666666Y-123895295D02*
X165666666Y-124038152D01*
X165666666Y-124038152D02*
X165619047Y-124133390D01*
X165619047Y-124133390D02*
X165571428Y-124181009D01*
X165571428Y-124181009D02*
X165476190Y-124228628D01*
X165476190Y-124228628D02*
X165095238Y-124228628D01*
X166095238Y-124181009D02*
X166428571Y-124181009D01*
X166571428Y-124704819D02*
X166095238Y-124704819D01*
X166095238Y-124704819D02*
X166095238Y-123704819D01*
X166095238Y-123704819D02*
X166571428Y-123704819D01*
X167333333Y-124181009D02*
X167000000Y-124181009D01*
X167000000Y-124704819D02*
X167000000Y-123704819D01*
X167000000Y-123704819D02*
X167476190Y-123704819D01*
X168000000Y-123704819D02*
X168000000Y-123942914D01*
X167761905Y-123847676D02*
X168000000Y-123942914D01*
X168000000Y-123942914D02*
X168238095Y-123847676D01*
X167857143Y-124133390D02*
X168000000Y-123942914D01*
X168000000Y-123942914D02*
X168142857Y-124133390D01*
X168761905Y-123704819D02*
X168761905Y-123942914D01*
X168523810Y-123847676D02*
X168761905Y-123942914D01*
X168761905Y-123942914D02*
X169000000Y-123847676D01*
X168619048Y-124133390D02*
X168761905Y-123942914D01*
X168761905Y-123942914D02*
X168904762Y-124133390D01*
X39666666Y-126704819D02*
X39333333Y-126228628D01*
X39095238Y-126704819D02*
X39095238Y-125704819D01*
X39095238Y-125704819D02*
X39476190Y-125704819D01*
X39476190Y-125704819D02*
X39571428Y-125752438D01*
X39571428Y-125752438D02*
X39619047Y-125800057D01*
X39619047Y-125800057D02*
X39666666Y-125895295D01*
X39666666Y-125895295D02*
X39666666Y-126038152D01*
X39666666Y-126038152D02*
X39619047Y-126133390D01*
X39619047Y-126133390D02*
X39571428Y-126181009D01*
X39571428Y-126181009D02*
X39476190Y-126228628D01*
X39476190Y-126228628D02*
X39095238Y-126228628D01*
X40095238Y-126181009D02*
X40428571Y-126181009D01*
X40571428Y-126704819D02*
X40095238Y-126704819D01*
X40095238Y-126704819D02*
X40095238Y-125704819D01*
X40095238Y-125704819D02*
X40571428Y-125704819D01*
X41333333Y-126181009D02*
X41000000Y-126181009D01*
X41000000Y-126704819D02*
X41000000Y-125704819D01*
X41000000Y-125704819D02*
X41476190Y-125704819D01*
X42000000Y-125704819D02*
X42000000Y-125942914D01*
X41761905Y-125847676D02*
X42000000Y-125942914D01*
X42000000Y-125942914D02*
X42238095Y-125847676D01*
X41857143Y-126133390D02*
X42000000Y-125942914D01*
X42000000Y-125942914D02*
X42142857Y-126133390D01*
X42761905Y-125704819D02*
X42761905Y-125942914D01*
X42523810Y-125847676D02*
X42761905Y-125942914D01*
X42761905Y-125942914D02*
X43000000Y-125847676D01*
X42619048Y-126133390D02*
X42761905Y-125942914D01*
X42761905Y-125942914D02*
X42904762Y-126133390D01*
X39666666Y-32704819D02*
X39333333Y-32228628D01*
X39095238Y-32704819D02*
X39095238Y-31704819D01*
X39095238Y-31704819D02*
X39476190Y-31704819D01*
X39476190Y-31704819D02*
X39571428Y-31752438D01*
X39571428Y-31752438D02*
X39619047Y-31800057D01*
X39619047Y-31800057D02*
X39666666Y-31895295D01*
X39666666Y-31895295D02*
X39666666Y-32038152D01*
X39666666Y-32038152D02*
X39619047Y-32133390D01*
X39619047Y-32133390D02*
X39571428Y-32181009D01*
X39571428Y-32181009D02*
X39476190Y-32228628D01*
X39476190Y-32228628D02*
X39095238Y-32228628D01*
X40095238Y-32181009D02*
X40428571Y-32181009D01*
X40571428Y-32704819D02*
X40095238Y-32704819D01*
X40095238Y-32704819D02*
X40095238Y-31704819D01*
X40095238Y-31704819D02*
X40571428Y-31704819D01*
X41333333Y-32181009D02*
X41000000Y-32181009D01*
X41000000Y-32704819D02*
X41000000Y-31704819D01*
X41000000Y-31704819D02*
X41476190Y-31704819D01*
X42000000Y-31704819D02*
X42000000Y-31942914D01*
X41761905Y-31847676D02*
X42000000Y-31942914D01*
X42000000Y-31942914D02*
X42238095Y-31847676D01*
X41857143Y-32133390D02*
X42000000Y-31942914D01*
X42000000Y-31942914D02*
X42142857Y-32133390D01*
X42761905Y-31704819D02*
X42761905Y-31942914D01*
X42523810Y-31847676D02*
X42761905Y-31942914D01*
X42761905Y-31942914D02*
X43000000Y-31847676D01*
X42619048Y-32133390D02*
X42761905Y-31942914D01*
X42761905Y-31942914D02*
X42904762Y-32133390D01*
X153238095Y-73854819D02*
X153238095Y-74664342D01*
X153238095Y-74664342D02*
X153285714Y-74759580D01*
X153285714Y-74759580D02*
X153333333Y-74807200D01*
X153333333Y-74807200D02*
X153428571Y-74854819D01*
X153428571Y-74854819D02*
X153619047Y-74854819D01*
X153619047Y-74854819D02*
X153714285Y-74807200D01*
X153714285Y-74807200D02*
X153761904Y-74759580D01*
X153761904Y-74759580D02*
X153809523Y-74664342D01*
X153809523Y-74664342D02*
X153809523Y-73854819D01*
X154809523Y-74854819D02*
X154238095Y-74854819D01*
X154523809Y-74854819D02*
X154523809Y-73854819D01*
X154523809Y-73854819D02*
X154428571Y-73997676D01*
X154428571Y-73997676D02*
X154333333Y-74092914D01*
X154333333Y-74092914D02*
X154238095Y-74140533D01*
X153665714Y-42699819D02*
X153094286Y-42699819D01*
X153380000Y-42699819D02*
X153380000Y-41699819D01*
X153380000Y-41699819D02*
X153284762Y-41842676D01*
X153284762Y-41842676D02*
X153189524Y-41937914D01*
X153189524Y-41937914D02*
X153094286Y-41985533D01*
X159738095Y-40669819D02*
X159738095Y-41479342D01*
X159738095Y-41479342D02*
X159785714Y-41574580D01*
X159785714Y-41574580D02*
X159833333Y-41622200D01*
X159833333Y-41622200D02*
X159928571Y-41669819D01*
X159928571Y-41669819D02*
X160119047Y-41669819D01*
X160119047Y-41669819D02*
X160214285Y-41622200D01*
X160214285Y-41622200D02*
X160261904Y-41574580D01*
X160261904Y-41574580D02*
X160309523Y-41479342D01*
X160309523Y-41479342D02*
X160309523Y-40669819D01*
X160738095Y-41622200D02*
X160880952Y-41669819D01*
X160880952Y-41669819D02*
X161119047Y-41669819D01*
X161119047Y-41669819D02*
X161214285Y-41622200D01*
X161214285Y-41622200D02*
X161261904Y-41574580D01*
X161261904Y-41574580D02*
X161309523Y-41479342D01*
X161309523Y-41479342D02*
X161309523Y-41384104D01*
X161309523Y-41384104D02*
X161261904Y-41288866D01*
X161261904Y-41288866D02*
X161214285Y-41241247D01*
X161214285Y-41241247D02*
X161119047Y-41193628D01*
X161119047Y-41193628D02*
X160928571Y-41146009D01*
X160928571Y-41146009D02*
X160833333Y-41098390D01*
X160833333Y-41098390D02*
X160785714Y-41050771D01*
X160785714Y-41050771D02*
X160738095Y-40955533D01*
X160738095Y-40955533D02*
X160738095Y-40860295D01*
X160738095Y-40860295D02*
X160785714Y-40765057D01*
X160785714Y-40765057D02*
X160833333Y-40717438D01*
X160833333Y-40717438D02*
X160928571Y-40669819D01*
X160928571Y-40669819D02*
X161166666Y-40669819D01*
X161166666Y-40669819D02*
X161309523Y-40717438D01*
X162071428Y-41146009D02*
X162214285Y-41193628D01*
X162214285Y-41193628D02*
X162261904Y-41241247D01*
X162261904Y-41241247D02*
X162309523Y-41336485D01*
X162309523Y-41336485D02*
X162309523Y-41479342D01*
X162309523Y-41479342D02*
X162261904Y-41574580D01*
X162261904Y-41574580D02*
X162214285Y-41622200D01*
X162214285Y-41622200D02*
X162119047Y-41669819D01*
X162119047Y-41669819D02*
X161738095Y-41669819D01*
X161738095Y-41669819D02*
X161738095Y-40669819D01*
X161738095Y-40669819D02*
X162071428Y-40669819D01*
X162071428Y-40669819D02*
X162166666Y-40717438D01*
X162166666Y-40717438D02*
X162214285Y-40765057D01*
X162214285Y-40765057D02*
X162261904Y-40860295D01*
X162261904Y-40860295D02*
X162261904Y-40955533D01*
X162261904Y-40955533D02*
X162214285Y-41050771D01*
X162214285Y-41050771D02*
X162166666Y-41098390D01*
X162166666Y-41098390D02*
X162071428Y-41146009D01*
X162071428Y-41146009D02*
X161738095Y-41146009D01*
X158380952Y-42403152D02*
X158761904Y-42403152D01*
X158523809Y-42069819D02*
X158523809Y-42926961D01*
X158523809Y-42926961D02*
X158571428Y-43022200D01*
X158571428Y-43022200D02*
X158666666Y-43069819D01*
X158666666Y-43069819D02*
X158761904Y-43069819D01*
X159238095Y-43069819D02*
X159142857Y-43022200D01*
X159142857Y-43022200D02*
X159095238Y-42974580D01*
X159095238Y-42974580D02*
X159047619Y-42879342D01*
X159047619Y-42879342D02*
X159047619Y-42593628D01*
X159047619Y-42593628D02*
X159095238Y-42498390D01*
X159095238Y-42498390D02*
X159142857Y-42450771D01*
X159142857Y-42450771D02*
X159238095Y-42403152D01*
X159238095Y-42403152D02*
X159380952Y-42403152D01*
X159380952Y-42403152D02*
X159476190Y-42450771D01*
X159476190Y-42450771D02*
X159523809Y-42498390D01*
X159523809Y-42498390D02*
X159571428Y-42593628D01*
X159571428Y-42593628D02*
X159571428Y-42879342D01*
X159571428Y-42879342D02*
X159523809Y-42974580D01*
X159523809Y-42974580D02*
X159476190Y-43022200D01*
X159476190Y-43022200D02*
X159380952Y-43069819D01*
X159380952Y-43069819D02*
X159238095Y-43069819D01*
X160000000Y-42403152D02*
X160000000Y-43403152D01*
X160000000Y-42450771D02*
X160095238Y-42403152D01*
X160095238Y-42403152D02*
X160285714Y-42403152D01*
X160285714Y-42403152D02*
X160380952Y-42450771D01*
X160380952Y-42450771D02*
X160428571Y-42498390D01*
X160428571Y-42498390D02*
X160476190Y-42593628D01*
X160476190Y-42593628D02*
X160476190Y-42879342D01*
X160476190Y-42879342D02*
X160428571Y-42974580D01*
X160428571Y-42974580D02*
X160380952Y-43022200D01*
X160380952Y-43022200D02*
X160285714Y-43069819D01*
X160285714Y-43069819D02*
X160095238Y-43069819D01*
X160095238Y-43069819D02*
X160000000Y-43022200D01*
X160857143Y-43022200D02*
X160952381Y-43069819D01*
X160952381Y-43069819D02*
X161142857Y-43069819D01*
X161142857Y-43069819D02*
X161238095Y-43022200D01*
X161238095Y-43022200D02*
X161285714Y-42926961D01*
X161285714Y-42926961D02*
X161285714Y-42879342D01*
X161285714Y-42879342D02*
X161238095Y-42784104D01*
X161238095Y-42784104D02*
X161142857Y-42736485D01*
X161142857Y-42736485D02*
X161000000Y-42736485D01*
X161000000Y-42736485D02*
X160904762Y-42688866D01*
X160904762Y-42688866D02*
X160857143Y-42593628D01*
X160857143Y-42593628D02*
X160857143Y-42546009D01*
X160857143Y-42546009D02*
X160904762Y-42450771D01*
X160904762Y-42450771D02*
X161000000Y-42403152D01*
X161000000Y-42403152D02*
X161142857Y-42403152D01*
X161142857Y-42403152D02*
X161238095Y-42450771D01*
X161714286Y-43069819D02*
X161714286Y-42403152D01*
X161714286Y-42069819D02*
X161666667Y-42117438D01*
X161666667Y-42117438D02*
X161714286Y-42165057D01*
X161714286Y-42165057D02*
X161761905Y-42117438D01*
X161761905Y-42117438D02*
X161714286Y-42069819D01*
X161714286Y-42069819D02*
X161714286Y-42165057D01*
X162619047Y-43069819D02*
X162619047Y-42069819D01*
X162619047Y-43022200D02*
X162523809Y-43069819D01*
X162523809Y-43069819D02*
X162333333Y-43069819D01*
X162333333Y-43069819D02*
X162238095Y-43022200D01*
X162238095Y-43022200D02*
X162190476Y-42974580D01*
X162190476Y-42974580D02*
X162142857Y-42879342D01*
X162142857Y-42879342D02*
X162142857Y-42593628D01*
X162142857Y-42593628D02*
X162190476Y-42498390D01*
X162190476Y-42498390D02*
X162238095Y-42450771D01*
X162238095Y-42450771D02*
X162333333Y-42403152D01*
X162333333Y-42403152D02*
X162523809Y-42403152D01*
X162523809Y-42403152D02*
X162619047Y-42450771D01*
X163476190Y-43022200D02*
X163380952Y-43069819D01*
X163380952Y-43069819D02*
X163190476Y-43069819D01*
X163190476Y-43069819D02*
X163095238Y-43022200D01*
X163095238Y-43022200D02*
X163047619Y-42926961D01*
X163047619Y-42926961D02*
X163047619Y-42546009D01*
X163047619Y-42546009D02*
X163095238Y-42450771D01*
X163095238Y-42450771D02*
X163190476Y-42403152D01*
X163190476Y-42403152D02*
X163380952Y-42403152D01*
X163380952Y-42403152D02*
X163476190Y-42450771D01*
X163476190Y-42450771D02*
X163523809Y-42546009D01*
X163523809Y-42546009D02*
X163523809Y-42641247D01*
X163523809Y-42641247D02*
X163047619Y-42736485D01*
X206666665Y-32704818D02*
X206333332Y-32228627D01*
X206095237Y-32704818D02*
X206095237Y-31704818D01*
X206095237Y-31704818D02*
X206476189Y-31704818D01*
X206476189Y-31704818D02*
X206571427Y-31752437D01*
X206571427Y-31752437D02*
X206619046Y-31800056D01*
X206619046Y-31800056D02*
X206666665Y-31895294D01*
X206666665Y-31895294D02*
X206666665Y-32038151D01*
X206666665Y-32038151D02*
X206619046Y-32133389D01*
X206619046Y-32133389D02*
X206571427Y-32181008D01*
X206571427Y-32181008D02*
X206476189Y-32228627D01*
X206476189Y-32228627D02*
X206095237Y-32228627D01*
X207095237Y-32181008D02*
X207428570Y-32181008D01*
X207571427Y-32704818D02*
X207095237Y-32704818D01*
X207095237Y-32704818D02*
X207095237Y-31704818D01*
X207095237Y-31704818D02*
X207571427Y-31704818D01*
X208333332Y-32181008D02*
X207999999Y-32181008D01*
X207999999Y-32704818D02*
X207999999Y-31704818D01*
X207999999Y-31704818D02*
X208476189Y-31704818D01*
X208999999Y-31704818D02*
X208999999Y-31942913D01*
X208761904Y-31847675D02*
X208999999Y-31942913D01*
X208999999Y-31942913D02*
X209238094Y-31847675D01*
X208857142Y-32133389D02*
X208999999Y-31942913D01*
X208999999Y-31942913D02*
X209142856Y-32133389D01*
X209761904Y-31704818D02*
X209761904Y-31942913D01*
X209523809Y-31847675D02*
X209761904Y-31942913D01*
X209761904Y-31942913D02*
X209999999Y-31847675D01*
X209619047Y-32133389D02*
X209761904Y-31942913D01*
X209761904Y-31942913D02*
X209904761Y-32133389D01*
X306666667Y-32704818D02*
X306333334Y-32228627D01*
X306095239Y-32704818D02*
X306095239Y-31704818D01*
X306095239Y-31704818D02*
X306476191Y-31704818D01*
X306476191Y-31704818D02*
X306571429Y-31752437D01*
X306571429Y-31752437D02*
X306619048Y-31800056D01*
X306619048Y-31800056D02*
X306666667Y-31895294D01*
X306666667Y-31895294D02*
X306666667Y-32038151D01*
X306666667Y-32038151D02*
X306619048Y-32133389D01*
X306619048Y-32133389D02*
X306571429Y-32181008D01*
X306571429Y-32181008D02*
X306476191Y-32228627D01*
X306476191Y-32228627D02*
X306095239Y-32228627D01*
X307095239Y-32181008D02*
X307428572Y-32181008D01*
X307571429Y-32704818D02*
X307095239Y-32704818D01*
X307095239Y-32704818D02*
X307095239Y-31704818D01*
X307095239Y-31704818D02*
X307571429Y-31704818D01*
X308333334Y-32181008D02*
X308000001Y-32181008D01*
X308000001Y-32704818D02*
X308000001Y-31704818D01*
X308000001Y-31704818D02*
X308476191Y-31704818D01*
X309000001Y-31704818D02*
X309000001Y-31942913D01*
X308761906Y-31847675D02*
X309000001Y-31942913D01*
X309000001Y-31942913D02*
X309238096Y-31847675D01*
X308857144Y-32133389D02*
X309000001Y-31942913D01*
X309000001Y-31942913D02*
X309142858Y-32133389D01*
X309761906Y-31704818D02*
X309761906Y-31942913D01*
X309523811Y-31847675D02*
X309761906Y-31942913D01*
X309761906Y-31942913D02*
X310000001Y-31847675D01*
X309619049Y-32133389D02*
X309761906Y-31942913D01*
X309761906Y-31942913D02*
X309904763Y-32133389D01*
X180238095Y-73854819D02*
X180238095Y-74664342D01*
X180238095Y-74664342D02*
X180285714Y-74759580D01*
X180285714Y-74759580D02*
X180333333Y-74807200D01*
X180333333Y-74807200D02*
X180428571Y-74854819D01*
X180428571Y-74854819D02*
X180619047Y-74854819D01*
X180619047Y-74854819D02*
X180714285Y-74807200D01*
X180714285Y-74807200D02*
X180761904Y-74759580D01*
X180761904Y-74759580D02*
X180809523Y-74664342D01*
X180809523Y-74664342D02*
X180809523Y-73854819D01*
X181238095Y-73950057D02*
X181285714Y-73902438D01*
X181285714Y-73902438D02*
X181380952Y-73854819D01*
X181380952Y-73854819D02*
X181619047Y-73854819D01*
X181619047Y-73854819D02*
X181714285Y-73902438D01*
X181714285Y-73902438D02*
X181761904Y-73950057D01*
X181761904Y-73950057D02*
X181809523Y-74045295D01*
X181809523Y-74045295D02*
X181809523Y-74140533D01*
X181809523Y-74140533D02*
X181761904Y-74283390D01*
X181761904Y-74283390D02*
X181190476Y-74854819D01*
X181190476Y-74854819D02*
X181809523Y-74854819D01*
X180665714Y-42699819D02*
X180094286Y-42699819D01*
X180380000Y-42699819D02*
X180380000Y-41699819D01*
X180380000Y-41699819D02*
X180284762Y-41842676D01*
X180284762Y-41842676D02*
X180189524Y-41937914D01*
X180189524Y-41937914D02*
X180094286Y-41985533D01*
X186738095Y-40669819D02*
X186738095Y-41479342D01*
X186738095Y-41479342D02*
X186785714Y-41574580D01*
X186785714Y-41574580D02*
X186833333Y-41622200D01*
X186833333Y-41622200D02*
X186928571Y-41669819D01*
X186928571Y-41669819D02*
X187119047Y-41669819D01*
X187119047Y-41669819D02*
X187214285Y-41622200D01*
X187214285Y-41622200D02*
X187261904Y-41574580D01*
X187261904Y-41574580D02*
X187309523Y-41479342D01*
X187309523Y-41479342D02*
X187309523Y-40669819D01*
X187738095Y-41622200D02*
X187880952Y-41669819D01*
X187880952Y-41669819D02*
X188119047Y-41669819D01*
X188119047Y-41669819D02*
X188214285Y-41622200D01*
X188214285Y-41622200D02*
X188261904Y-41574580D01*
X188261904Y-41574580D02*
X188309523Y-41479342D01*
X188309523Y-41479342D02*
X188309523Y-41384104D01*
X188309523Y-41384104D02*
X188261904Y-41288866D01*
X188261904Y-41288866D02*
X188214285Y-41241247D01*
X188214285Y-41241247D02*
X188119047Y-41193628D01*
X188119047Y-41193628D02*
X187928571Y-41146009D01*
X187928571Y-41146009D02*
X187833333Y-41098390D01*
X187833333Y-41098390D02*
X187785714Y-41050771D01*
X187785714Y-41050771D02*
X187738095Y-40955533D01*
X187738095Y-40955533D02*
X187738095Y-40860295D01*
X187738095Y-40860295D02*
X187785714Y-40765057D01*
X187785714Y-40765057D02*
X187833333Y-40717438D01*
X187833333Y-40717438D02*
X187928571Y-40669819D01*
X187928571Y-40669819D02*
X188166666Y-40669819D01*
X188166666Y-40669819D02*
X188309523Y-40717438D01*
X189071428Y-41146009D02*
X189214285Y-41193628D01*
X189214285Y-41193628D02*
X189261904Y-41241247D01*
X189261904Y-41241247D02*
X189309523Y-41336485D01*
X189309523Y-41336485D02*
X189309523Y-41479342D01*
X189309523Y-41479342D02*
X189261904Y-41574580D01*
X189261904Y-41574580D02*
X189214285Y-41622200D01*
X189214285Y-41622200D02*
X189119047Y-41669819D01*
X189119047Y-41669819D02*
X188738095Y-41669819D01*
X188738095Y-41669819D02*
X188738095Y-40669819D01*
X188738095Y-40669819D02*
X189071428Y-40669819D01*
X189071428Y-40669819D02*
X189166666Y-40717438D01*
X189166666Y-40717438D02*
X189214285Y-40765057D01*
X189214285Y-40765057D02*
X189261904Y-40860295D01*
X189261904Y-40860295D02*
X189261904Y-40955533D01*
X189261904Y-40955533D02*
X189214285Y-41050771D01*
X189214285Y-41050771D02*
X189166666Y-41098390D01*
X189166666Y-41098390D02*
X189071428Y-41146009D01*
X189071428Y-41146009D02*
X188738095Y-41146009D01*
X185380952Y-42403152D02*
X185761904Y-42403152D01*
X185523809Y-42069819D02*
X185523809Y-42926961D01*
X185523809Y-42926961D02*
X185571428Y-43022200D01*
X185571428Y-43022200D02*
X185666666Y-43069819D01*
X185666666Y-43069819D02*
X185761904Y-43069819D01*
X186238095Y-43069819D02*
X186142857Y-43022200D01*
X186142857Y-43022200D02*
X186095238Y-42974580D01*
X186095238Y-42974580D02*
X186047619Y-42879342D01*
X186047619Y-42879342D02*
X186047619Y-42593628D01*
X186047619Y-42593628D02*
X186095238Y-42498390D01*
X186095238Y-42498390D02*
X186142857Y-42450771D01*
X186142857Y-42450771D02*
X186238095Y-42403152D01*
X186238095Y-42403152D02*
X186380952Y-42403152D01*
X186380952Y-42403152D02*
X186476190Y-42450771D01*
X186476190Y-42450771D02*
X186523809Y-42498390D01*
X186523809Y-42498390D02*
X186571428Y-42593628D01*
X186571428Y-42593628D02*
X186571428Y-42879342D01*
X186571428Y-42879342D02*
X186523809Y-42974580D01*
X186523809Y-42974580D02*
X186476190Y-43022200D01*
X186476190Y-43022200D02*
X186380952Y-43069819D01*
X186380952Y-43069819D02*
X186238095Y-43069819D01*
X187000000Y-42403152D02*
X187000000Y-43403152D01*
X187000000Y-42450771D02*
X187095238Y-42403152D01*
X187095238Y-42403152D02*
X187285714Y-42403152D01*
X187285714Y-42403152D02*
X187380952Y-42450771D01*
X187380952Y-42450771D02*
X187428571Y-42498390D01*
X187428571Y-42498390D02*
X187476190Y-42593628D01*
X187476190Y-42593628D02*
X187476190Y-42879342D01*
X187476190Y-42879342D02*
X187428571Y-42974580D01*
X187428571Y-42974580D02*
X187380952Y-43022200D01*
X187380952Y-43022200D02*
X187285714Y-43069819D01*
X187285714Y-43069819D02*
X187095238Y-43069819D01*
X187095238Y-43069819D02*
X187000000Y-43022200D01*
X187857143Y-43022200D02*
X187952381Y-43069819D01*
X187952381Y-43069819D02*
X188142857Y-43069819D01*
X188142857Y-43069819D02*
X188238095Y-43022200D01*
X188238095Y-43022200D02*
X188285714Y-42926961D01*
X188285714Y-42926961D02*
X188285714Y-42879342D01*
X188285714Y-42879342D02*
X188238095Y-42784104D01*
X188238095Y-42784104D02*
X188142857Y-42736485D01*
X188142857Y-42736485D02*
X188000000Y-42736485D01*
X188000000Y-42736485D02*
X187904762Y-42688866D01*
X187904762Y-42688866D02*
X187857143Y-42593628D01*
X187857143Y-42593628D02*
X187857143Y-42546009D01*
X187857143Y-42546009D02*
X187904762Y-42450771D01*
X187904762Y-42450771D02*
X188000000Y-42403152D01*
X188000000Y-42403152D02*
X188142857Y-42403152D01*
X188142857Y-42403152D02*
X188238095Y-42450771D01*
X188714286Y-43069819D02*
X188714286Y-42403152D01*
X188714286Y-42069819D02*
X188666667Y-42117438D01*
X188666667Y-42117438D02*
X188714286Y-42165057D01*
X188714286Y-42165057D02*
X188761905Y-42117438D01*
X188761905Y-42117438D02*
X188714286Y-42069819D01*
X188714286Y-42069819D02*
X188714286Y-42165057D01*
X189619047Y-43069819D02*
X189619047Y-42069819D01*
X189619047Y-43022200D02*
X189523809Y-43069819D01*
X189523809Y-43069819D02*
X189333333Y-43069819D01*
X189333333Y-43069819D02*
X189238095Y-43022200D01*
X189238095Y-43022200D02*
X189190476Y-42974580D01*
X189190476Y-42974580D02*
X189142857Y-42879342D01*
X189142857Y-42879342D02*
X189142857Y-42593628D01*
X189142857Y-42593628D02*
X189190476Y-42498390D01*
X189190476Y-42498390D02*
X189238095Y-42450771D01*
X189238095Y-42450771D02*
X189333333Y-42403152D01*
X189333333Y-42403152D02*
X189523809Y-42403152D01*
X189523809Y-42403152D02*
X189619047Y-42450771D01*
X190476190Y-43022200D02*
X190380952Y-43069819D01*
X190380952Y-43069819D02*
X190190476Y-43069819D01*
X190190476Y-43069819D02*
X190095238Y-43022200D01*
X190095238Y-43022200D02*
X190047619Y-42926961D01*
X190047619Y-42926961D02*
X190047619Y-42546009D01*
X190047619Y-42546009D02*
X190095238Y-42450771D01*
X190095238Y-42450771D02*
X190190476Y-42403152D01*
X190190476Y-42403152D02*
X190380952Y-42403152D01*
X190380952Y-42403152D02*
X190476190Y-42450771D01*
X190476190Y-42450771D02*
X190523809Y-42546009D01*
X190523809Y-42546009D02*
X190523809Y-42641247D01*
X190523809Y-42641247D02*
X190047619Y-42736485D01*
X180666666Y-124704819D02*
X180333333Y-124228628D01*
X180095238Y-124704819D02*
X180095238Y-123704819D01*
X180095238Y-123704819D02*
X180476190Y-123704819D01*
X180476190Y-123704819D02*
X180571428Y-123752438D01*
X180571428Y-123752438D02*
X180619047Y-123800057D01*
X180619047Y-123800057D02*
X180666666Y-123895295D01*
X180666666Y-123895295D02*
X180666666Y-124038152D01*
X180666666Y-124038152D02*
X180619047Y-124133390D01*
X180619047Y-124133390D02*
X180571428Y-124181009D01*
X180571428Y-124181009D02*
X180476190Y-124228628D01*
X180476190Y-124228628D02*
X180095238Y-124228628D01*
X181095238Y-124181009D02*
X181428571Y-124181009D01*
X181571428Y-124704819D02*
X181095238Y-124704819D01*
X181095238Y-124704819D02*
X181095238Y-123704819D01*
X181095238Y-123704819D02*
X181571428Y-123704819D01*
X182333333Y-124181009D02*
X182000000Y-124181009D01*
X182000000Y-124704819D02*
X182000000Y-123704819D01*
X182000000Y-123704819D02*
X182476190Y-123704819D01*
X183000000Y-123704819D02*
X183000000Y-123942914D01*
X182761905Y-123847676D02*
X183000000Y-123942914D01*
X183000000Y-123942914D02*
X183238095Y-123847676D01*
X182857143Y-124133390D02*
X183000000Y-123942914D01*
X183000000Y-123942914D02*
X183142857Y-124133390D01*
X183761905Y-123704819D02*
X183761905Y-123942914D01*
X183523810Y-123847676D02*
X183761905Y-123942914D01*
X183761905Y-123942914D02*
X184000000Y-123847676D01*
X183619048Y-124133390D02*
X183761905Y-123942914D01*
X183761905Y-123942914D02*
X183904762Y-124133390D01*
%TO.C,SW56*%
D11*
X197120835Y-128486860D02*
X196620835Y-127620835D01*
X197486860Y-127120835D02*
X196620835Y-127620835D01*
X203120835Y-138879165D02*
X202620835Y-138013140D01*
X203120835Y-138879165D02*
X203986860Y-138379165D01*
X207879165Y-121120835D02*
X207013140Y-121620835D01*
X207879165Y-121120835D02*
X208379165Y-121986860D01*
X213513140Y-132879165D02*
X214379165Y-132379165D01*
X213879165Y-131513140D02*
X214379165Y-132379165D01*
%TO.C,SW55*%
X186666352Y-148379165D02*
X187532377Y-147879165D01*
X186666352Y-148379165D02*
X186166352Y-147513140D01*
X197058657Y-142379165D02*
X197924682Y-141879165D01*
X197424682Y-141013140D02*
X197924682Y-141879165D01*
X180666352Y-137986860D02*
X180166352Y-137120835D01*
X181032377Y-136620835D02*
X180166352Y-137120835D01*
X191424682Y-130620835D02*
X191924682Y-131486860D01*
X191424682Y-130620835D02*
X190558657Y-131120835D01*
%TO.C,SW50*%
X220500000Y-99000000D02*
X220500000Y-98000000D01*
X220500000Y-111000000D02*
X220500000Y-110000000D01*
X220500000Y-111000000D02*
X221500000Y-111000000D01*
X221500000Y-98000000D02*
X220500000Y-98000000D01*
X232500000Y-111000000D02*
X233500000Y-111000000D01*
X233500000Y-98000000D02*
X232500000Y-98000000D01*
X233500000Y-98000000D02*
X233500000Y-99000000D01*
X233500000Y-110000000D02*
X233500000Y-111000000D01*
%TO.C,SW19*%
X39500000Y-100500000D02*
X39500000Y-99500000D01*
X39500000Y-112500000D02*
X39500000Y-111500000D01*
X39500000Y-112500000D02*
X40500000Y-112500000D01*
X40500000Y-99500000D02*
X39500000Y-99500000D01*
X51500000Y-112500000D02*
X52500000Y-112500000D01*
X52500000Y-99500000D02*
X51500000Y-99500000D01*
X52500000Y-99500000D02*
X52500000Y-100500000D01*
X52500000Y-111500000D02*
X52500000Y-112500000D01*
%TO.C,SW28*%
X115500000Y-118000000D02*
X115500000Y-117000000D01*
X115500000Y-130000000D02*
X115500000Y-129000000D01*
X115500000Y-130000000D02*
X116500000Y-130000000D01*
X116500000Y-117000000D02*
X115500000Y-117000000D01*
X127500000Y-130000000D02*
X128500000Y-130000000D01*
X128500000Y-117000000D02*
X127500000Y-117000000D01*
X128500000Y-117000000D02*
X128500000Y-118000000D01*
X128500000Y-129000000D02*
X128500000Y-130000000D01*
%TO.C,SW16*%
X96500000Y-73500000D02*
X96500000Y-72500000D01*
X96500000Y-85500000D02*
X96500000Y-84500000D01*
X96500000Y-85500000D02*
X97500000Y-85500000D01*
X97500000Y-72500000D02*
X96500000Y-72500000D01*
X108500000Y-85500000D02*
X109500000Y-85500000D01*
X109500000Y-72500000D02*
X108500000Y-72500000D01*
X109500000Y-72500000D02*
X109500000Y-73500000D01*
X109500000Y-84500000D02*
X109500000Y-85500000D01*
%TO.C,SW8*%
X58500000Y-62500000D02*
X58500000Y-61500000D01*
X58500000Y-74500000D02*
X58500000Y-73500000D01*
X58500000Y-74500000D02*
X59500000Y-74500000D01*
X59500000Y-61500000D02*
X58500000Y-61500000D01*
X70500000Y-74500000D02*
X71500000Y-74500000D01*
X71500000Y-61500000D02*
X70500000Y-61500000D01*
X71500000Y-61500000D02*
X71500000Y-62500000D01*
X71500000Y-73500000D02*
X71500000Y-74500000D01*
%TO.C,SW38*%
X220500000Y-61000000D02*
X220500000Y-60000000D01*
X220500000Y-73000000D02*
X220500000Y-72000000D01*
X220500000Y-73000000D02*
X221500000Y-73000000D01*
X221500000Y-60000000D02*
X220500000Y-60000000D01*
X232500000Y-73000000D02*
X233500000Y-73000000D01*
X233500000Y-60000000D02*
X232500000Y-60000000D01*
X233500000Y-60000000D02*
X233500000Y-61000000D01*
X233500000Y-72000000D02*
X233500000Y-73000000D01*
%TO.C,SW10*%
X96500000Y-54500000D02*
X96500000Y-53500000D01*
X96500000Y-66500000D02*
X96500000Y-65500000D01*
X96500000Y-66500000D02*
X97500000Y-66500000D01*
X97500000Y-53500000D02*
X96500000Y-53500000D01*
X108500000Y-66500000D02*
X109500000Y-66500000D01*
X109500000Y-53500000D02*
X108500000Y-53500000D01*
X109500000Y-53500000D02*
X109500000Y-54500000D01*
X109500000Y-65500000D02*
X109500000Y-66500000D01*
%TO.C,SW24*%
X134500000Y-102500000D02*
X134500000Y-101500000D01*
X134500000Y-114500000D02*
X134500000Y-113500000D01*
X134500000Y-114500000D02*
X135500000Y-114500000D01*
X135500000Y-101500000D02*
X134500000Y-101500000D01*
X146500000Y-114500000D02*
X147500000Y-114500000D01*
X147500000Y-101500000D02*
X146500000Y-101500000D01*
X147500000Y-101500000D02*
X147500000Y-102500000D01*
X147500000Y-113500000D02*
X147500000Y-114500000D01*
%TO.C,SW48*%
X296500000Y-81500000D02*
X296500000Y-80500000D01*
X296500000Y-93500000D02*
X296500000Y-92500000D01*
X296500000Y-93500000D02*
X297500000Y-93500000D01*
X297500000Y-80500000D02*
X296500000Y-80500000D01*
X308500000Y-93500000D02*
X309500000Y-93500000D01*
X309500000Y-80500000D02*
X308500000Y-80500000D01*
X309500000Y-80500000D02*
X309500000Y-81500000D01*
X309500000Y-92500000D02*
X309500000Y-93500000D01*
%TO.C,SW54*%
X296500000Y-100500000D02*
X296500000Y-99500000D01*
X296500000Y-112500000D02*
X296500000Y-111500000D01*
X296500000Y-112500000D02*
X297500000Y-112500000D01*
X297500000Y-99500000D02*
X296500000Y-99500000D01*
X308500000Y-112500000D02*
X309500000Y-112500000D01*
X309500000Y-99500000D02*
X308500000Y-99500000D01*
X309500000Y-99500000D02*
X309500000Y-100500000D01*
X309500000Y-111500000D02*
X309500000Y-112500000D01*
%TO.C,SW46*%
X258500000Y-77000000D02*
X258500000Y-76000000D01*
X258500000Y-89000000D02*
X258500000Y-88000000D01*
X258500000Y-89000000D02*
X259500000Y-89000000D01*
X259500000Y-76000000D02*
X258500000Y-76000000D01*
X270500000Y-89000000D02*
X271500000Y-89000000D01*
X271500000Y-76000000D02*
X270500000Y-76000000D01*
X271500000Y-76000000D02*
X271500000Y-77000000D01*
X271500000Y-88000000D02*
X271500000Y-89000000D01*
%TO.C,SW23*%
X115500000Y-99000000D02*
X115500000Y-98000000D01*
X115500000Y-111000000D02*
X115500000Y-110000000D01*
X115500000Y-111000000D02*
X116500000Y-111000000D01*
X116500000Y-98000000D02*
X115500000Y-98000000D01*
X127500000Y-111000000D02*
X128500000Y-111000000D01*
X128500000Y-98000000D02*
X127500000Y-98000000D01*
X128500000Y-98000000D02*
X128500000Y-99000000D01*
X128500000Y-110000000D02*
X128500000Y-111000000D01*
%TO.C,SW5*%
X115500000Y-42000000D02*
X115500000Y-41000000D01*
X115500000Y-54000000D02*
X115500000Y-53000000D01*
X115500000Y-54000000D02*
X116500000Y-54000000D01*
X116500000Y-41000000D02*
X115500000Y-41000000D01*
X127500000Y-54000000D02*
X128500000Y-54000000D01*
X128500000Y-41000000D02*
X127500000Y-41000000D01*
X128500000Y-41000000D02*
X128500000Y-42000000D01*
X128500000Y-53000000D02*
X128500000Y-54000000D01*
%TO.C,SW36*%
X296500000Y-43500000D02*
X296500000Y-42500000D01*
X296500000Y-55500000D02*
X296500000Y-54500000D01*
X296500000Y-55500000D02*
X297500000Y-55500000D01*
X297500000Y-42500000D02*
X296500000Y-42500000D01*
X308500000Y-55500000D02*
X309500000Y-55500000D01*
X309500000Y-42500000D02*
X308500000Y-42500000D01*
X309500000Y-42500000D02*
X309500000Y-43500000D01*
X309500000Y-54500000D02*
X309500000Y-55500000D01*
%TO.C,J2*%
D10*
X173887500Y-75200000D02*
X173887500Y-80800000D01*
X175887500Y-74950000D02*
X175887500Y-81050000D01*
X175887500Y-74950000D02*
X187987500Y-74950000D01*
X175887500Y-75200000D02*
X173887500Y-75200000D01*
X175887500Y-80800000D02*
X173887500Y-80800000D01*
X175887500Y-81050000D02*
X187987500Y-81050000D01*
X187987500Y-74950000D02*
X187987500Y-81050000D01*
%TO.C,SW15*%
D11*
X77500000Y-77000000D02*
X77500000Y-76000000D01*
X77500000Y-89000000D02*
X77500000Y-88000000D01*
X77500000Y-89000000D02*
X78500000Y-89000000D01*
X78500000Y-76000000D02*
X77500000Y-76000000D01*
X89500000Y-89000000D02*
X90500000Y-89000000D01*
X90500000Y-76000000D02*
X89500000Y-76000000D01*
X90500000Y-76000000D02*
X90500000Y-77000000D01*
X90500000Y-88000000D02*
X90500000Y-89000000D01*
%TO.C,SW20*%
X58500000Y-100500000D02*
X58500000Y-99500000D01*
X58500000Y-112500000D02*
X58500000Y-111500000D01*
X58500000Y-112500000D02*
X59500000Y-112500000D01*
X59500000Y-99500000D02*
X58500000Y-99500000D01*
X70500000Y-112500000D02*
X71500000Y-112500000D01*
X71500000Y-99500000D02*
X70500000Y-99500000D01*
X71500000Y-99500000D02*
X71500000Y-100500000D01*
X71500000Y-111500000D02*
X71500000Y-112500000D01*
%TO.C,SW13*%
X39500000Y-81500000D02*
X39500000Y-80500000D01*
X39500000Y-93500000D02*
X39500000Y-92500000D01*
X39500000Y-93500000D02*
X40500000Y-93500000D01*
X40500000Y-80500000D02*
X39500000Y-80500000D01*
X51500000Y-93500000D02*
X52500000Y-93500000D01*
X52500000Y-80500000D02*
X51500000Y-80500000D01*
X52500000Y-80500000D02*
X52500000Y-81500000D01*
X52500000Y-92500000D02*
X52500000Y-93500000D01*
%TO.C,SW40*%
X258500000Y-58000000D02*
X258500000Y-57000000D01*
X258500000Y-70000000D02*
X258500000Y-69000000D01*
X258500000Y-70000000D02*
X259500000Y-70000000D01*
X259500000Y-57000000D02*
X258500000Y-57000000D01*
X270500000Y-70000000D02*
X271500000Y-70000000D01*
X271500000Y-57000000D02*
X270500000Y-57000000D01*
X271500000Y-57000000D02*
X271500000Y-58000000D01*
X271500000Y-69000000D02*
X271500000Y-70000000D01*
%TO.C,SW9*%
X77500000Y-58000000D02*
X77500000Y-57000000D01*
X77500000Y-70000000D02*
X77500000Y-69000000D01*
X77500000Y-70000000D02*
X78500000Y-70000000D01*
X78500000Y-57000000D02*
X77500000Y-57000000D01*
X89500000Y-70000000D02*
X90500000Y-70000000D01*
X90500000Y-57000000D02*
X89500000Y-57000000D01*
X90500000Y-57000000D02*
X90500000Y-58000000D01*
X90500000Y-69000000D02*
X90500000Y-70000000D01*
%TO.C,SW34*%
X258500000Y-39000000D02*
X258500000Y-38000000D01*
X258500000Y-51000000D02*
X258500000Y-50000000D01*
X258500000Y-51000000D02*
X259500000Y-51000000D01*
X259500000Y-38000000D02*
X258500000Y-38000000D01*
X270500000Y-51000000D02*
X271500000Y-51000000D01*
X271500000Y-38000000D02*
X270500000Y-38000000D01*
X271500000Y-38000000D02*
X271500000Y-39000000D01*
X271500000Y-50000000D02*
X271500000Y-51000000D01*
%TO.C,SW26*%
X77500000Y-115000000D02*
X77500000Y-114000000D01*
X77500000Y-127000000D02*
X77500000Y-126000000D01*
X77500000Y-127000000D02*
X78500000Y-127000000D01*
X78500000Y-114000000D02*
X77500000Y-114000000D01*
X89500000Y-127000000D02*
X90500000Y-127000000D01*
X90500000Y-114000000D02*
X89500000Y-114000000D01*
X90500000Y-114000000D02*
X90500000Y-115000000D01*
X90500000Y-126000000D02*
X90500000Y-127000000D01*
%TO.C,SW11*%
X115500000Y-61000000D02*
X115500000Y-60000000D01*
X115500000Y-73000000D02*
X115500000Y-72000000D01*
X115500000Y-73000000D02*
X116500000Y-73000000D01*
X116500000Y-60000000D02*
X115500000Y-60000000D01*
X127500000Y-73000000D02*
X128500000Y-73000000D01*
X128500000Y-60000000D02*
X127500000Y-60000000D01*
X128500000Y-60000000D02*
X128500000Y-61000000D01*
X128500000Y-72000000D02*
X128500000Y-73000000D01*
%TO.C,SW49*%
X201500000Y-102500000D02*
X201500000Y-101500000D01*
X201500000Y-114500000D02*
X201500000Y-113500000D01*
X201500000Y-114500000D02*
X202500000Y-114500000D01*
X202500000Y-101500000D02*
X201500000Y-101500000D01*
X213500000Y-114500000D02*
X214500000Y-114500000D01*
X214500000Y-101500000D02*
X213500000Y-101500000D01*
X214500000Y-101500000D02*
X214500000Y-102500000D01*
X214500000Y-113500000D02*
X214500000Y-114500000D01*
%TO.C,SW41*%
X277500000Y-62500000D02*
X277500000Y-61500000D01*
X277500000Y-74500000D02*
X277500000Y-73500000D01*
X277500000Y-74500000D02*
X278500000Y-74500000D01*
X278500000Y-61500000D02*
X277500000Y-61500000D01*
X289500000Y-74500000D02*
X290500000Y-74500000D01*
X290500000Y-61500000D02*
X289500000Y-61500000D01*
X290500000Y-61500000D02*
X290500000Y-62500000D01*
X290500000Y-73500000D02*
X290500000Y-74500000D01*
%TO.C,SW25*%
X58500000Y-119500000D02*
X58500000Y-118500000D01*
X58500000Y-131500000D02*
X58500000Y-130500000D01*
X58500000Y-131500000D02*
X59500000Y-131500000D01*
X59500000Y-118500000D02*
X58500000Y-118500000D01*
X70500000Y-131500000D02*
X71500000Y-131500000D01*
X71500000Y-118500000D02*
X70500000Y-118500000D01*
X71500000Y-118500000D02*
X71500000Y-119500000D01*
X71500000Y-130500000D02*
X71500000Y-131500000D01*
%TO.C,SW51*%
X239500000Y-92500000D02*
X239500000Y-91500000D01*
X239500000Y-104500000D02*
X239500000Y-103500000D01*
X239500000Y-104500000D02*
X240500000Y-104500000D01*
X240500000Y-91500000D02*
X239500000Y-91500000D01*
X251500000Y-104500000D02*
X252500000Y-104500000D01*
X252500000Y-91500000D02*
X251500000Y-91500000D01*
X252500000Y-91500000D02*
X252500000Y-92500000D01*
X252500000Y-103500000D02*
X252500000Y-104500000D01*
%TO.C,SW57*%
X220500000Y-118000000D02*
X220500000Y-117000000D01*
X220500000Y-130000000D02*
X220500000Y-129000000D01*
X220500000Y-130000000D02*
X221500000Y-130000000D01*
X221500000Y-117000000D02*
X220500000Y-117000000D01*
X232500000Y-130000000D02*
X233500000Y-130000000D01*
X233500000Y-117000000D02*
X232500000Y-117000000D01*
X233500000Y-117000000D02*
X233500000Y-118000000D01*
X233500000Y-129000000D02*
X233500000Y-130000000D01*
%TO.C,SW53*%
X277500000Y-100500000D02*
X277500000Y-99500000D01*
X277500000Y-112500000D02*
X277500000Y-111500000D01*
X277500000Y-112500000D02*
X278500000Y-112500000D01*
X278500000Y-99500000D02*
X277500000Y-99500000D01*
X289500000Y-112500000D02*
X290500000Y-112500000D01*
X290500000Y-99500000D02*
X289500000Y-99500000D01*
X290500000Y-99500000D02*
X290500000Y-100500000D01*
X290500000Y-111500000D02*
X290500000Y-112500000D01*
%TO.C,U1*%
D10*
X157450000Y-43800000D02*
X157450000Y-40220000D01*
X164550000Y-43800000D02*
X157450000Y-43800000D01*
X164550000Y-43800000D02*
X164550000Y-40220000D01*
X152110000Y-40220000D02*
X169890000Y-40220000D01*
X169890000Y-73240000D01*
X152110000Y-73240000D01*
X152110000Y-40220000D01*
%TO.C,SW4*%
D11*
X96500000Y-35500000D02*
X96500000Y-34500000D01*
X96500000Y-47500000D02*
X96500000Y-46500000D01*
X96500000Y-47500000D02*
X97500000Y-47500000D01*
X97500000Y-34500000D02*
X96500000Y-34500000D01*
X108500000Y-47500000D02*
X109500000Y-47500000D01*
X109500000Y-34500000D02*
X108500000Y-34500000D01*
X109500000Y-34500000D02*
X109500000Y-35500000D01*
X109500000Y-46500000D02*
X109500000Y-47500000D01*
%TO.C,J1*%
D10*
X161012500Y-81050000D02*
X161012500Y-74950000D01*
X173112500Y-74950000D02*
X161012500Y-74950000D01*
X173112500Y-75200000D02*
X175112500Y-75200000D01*
X173112500Y-80800000D02*
X175112500Y-80800000D01*
X173112500Y-81050000D02*
X161012500Y-81050000D01*
X173112500Y-81050000D02*
X173112500Y-74950000D01*
X175112500Y-80800000D02*
X175112500Y-75200000D01*
%TO.C,SW45*%
D11*
X239500000Y-73500000D02*
X239500000Y-72500000D01*
X239500000Y-85500000D02*
X239500000Y-84500000D01*
X239500000Y-85500000D02*
X240500000Y-85500000D01*
X240500000Y-72500000D02*
X239500000Y-72500000D01*
X251500000Y-85500000D02*
X252500000Y-85500000D01*
X252500000Y-72500000D02*
X251500000Y-72500000D01*
X252500000Y-72500000D02*
X252500000Y-73500000D01*
X252500000Y-84500000D02*
X252500000Y-85500000D01*
%TO.C,SW3*%
X77500000Y-39000000D02*
X77500000Y-38000000D01*
X77500000Y-51000000D02*
X77500000Y-50000000D01*
X77500000Y-51000000D02*
X78500000Y-51000000D01*
X78500000Y-38000000D02*
X77500000Y-38000000D01*
X89500000Y-51000000D02*
X90500000Y-51000000D01*
X90500000Y-38000000D02*
X89500000Y-38000000D01*
X90500000Y-38000000D02*
X90500000Y-39000000D01*
X90500000Y-50000000D02*
X90500000Y-51000000D01*
%TO.C,SW32*%
X220500000Y-42000000D02*
X220500000Y-41000000D01*
X220500000Y-54000000D02*
X220500000Y-53000000D01*
X220500000Y-54000000D02*
X221500000Y-54000000D01*
X221500000Y-41000000D02*
X220500000Y-41000000D01*
X232500000Y-54000000D02*
X233500000Y-54000000D01*
X233500000Y-41000000D02*
X232500000Y-41000000D01*
X233500000Y-41000000D02*
X233500000Y-42000000D01*
X233500000Y-53000000D02*
X233500000Y-54000000D01*
%TO.C,SW27*%
X96500000Y-111500000D02*
X96500000Y-110500000D01*
X96500000Y-123500000D02*
X96500000Y-122500000D01*
X96500000Y-123500000D02*
X97500000Y-123500000D01*
X97500000Y-110500000D02*
X96500000Y-110500000D01*
X108500000Y-123500000D02*
X109500000Y-123500000D01*
X109500000Y-110500000D02*
X108500000Y-110500000D01*
X109500000Y-110500000D02*
X109500000Y-111500000D01*
X109500000Y-122500000D02*
X109500000Y-123500000D01*
%TO.C,SW6*%
X134500000Y-45500000D02*
X134500000Y-44500000D01*
X134500000Y-57500000D02*
X134500000Y-56500000D01*
X134500000Y-57500000D02*
X135500000Y-57500000D01*
X135500000Y-44500000D02*
X134500000Y-44500000D01*
X146500000Y-57500000D02*
X147500000Y-57500000D01*
X147500000Y-44500000D02*
X146500000Y-44500000D01*
X147500000Y-44500000D02*
X147500000Y-45500000D01*
X147500000Y-56500000D02*
X147500000Y-57500000D01*
%TO.C,SW22*%
X96500000Y-92500000D02*
X96500000Y-91500000D01*
X96500000Y-104500000D02*
X96500000Y-103500000D01*
X96500000Y-104500000D02*
X97500000Y-104500000D01*
X97500000Y-91500000D02*
X96500000Y-91500000D01*
X108500000Y-104500000D02*
X109500000Y-104500000D01*
X109500000Y-91500000D02*
X108500000Y-91500000D01*
X109500000Y-91500000D02*
X109500000Y-92500000D01*
X109500000Y-103500000D02*
X109500000Y-104500000D01*
%TO.C,U2*%
D10*
X184450000Y-43800000D02*
X184450000Y-40220000D01*
X191550000Y-43800000D02*
X184450000Y-43800000D01*
X191550000Y-43800000D02*
X191550000Y-40220000D01*
X179110000Y-40220000D02*
X196890000Y-40220000D01*
X196890000Y-73240000D01*
X179110000Y-73240000D01*
X179110000Y-40220000D01*
%TO.C,SW1*%
D11*
X39500000Y-43500000D02*
X39500000Y-42500000D01*
X39500000Y-55500000D02*
X39500000Y-54500000D01*
X39500000Y-55500000D02*
X40500000Y-55500000D01*
X40500000Y-42500000D02*
X39500000Y-42500000D01*
X51500000Y-55500000D02*
X52500000Y-55500000D01*
X52500000Y-42500000D02*
X51500000Y-42500000D01*
X52500000Y-42500000D02*
X52500000Y-43500000D01*
X52500000Y-54500000D02*
X52500000Y-55500000D01*
%TO.C,SW43*%
X201500000Y-83500000D02*
X201500000Y-82500000D01*
X201500000Y-95500000D02*
X201500000Y-94500000D01*
X201500000Y-95500000D02*
X202500000Y-95500000D01*
X202500000Y-82500000D02*
X201500000Y-82500000D01*
X213500000Y-95500000D02*
X214500000Y-95500000D01*
X214500000Y-82500000D02*
X213500000Y-82500000D01*
X214500000Y-82500000D02*
X214500000Y-83500000D01*
X214500000Y-94500000D02*
X214500000Y-95500000D01*
%TO.C,SW47*%
X277500000Y-81500000D02*
X277500000Y-80500000D01*
X277500000Y-93500000D02*
X277500000Y-92500000D01*
X277500000Y-93500000D02*
X278500000Y-93500000D01*
X278500000Y-80500000D02*
X277500000Y-80500000D01*
X289500000Y-93500000D02*
X290500000Y-93500000D01*
X290500000Y-80500000D02*
X289500000Y-80500000D01*
X290500000Y-80500000D02*
X290500000Y-81500000D01*
X290500000Y-92500000D02*
X290500000Y-93500000D01*
%TO.C,SW59*%
X258500000Y-115000000D02*
X258500000Y-114000000D01*
X258500000Y-127000000D02*
X258500000Y-126000000D01*
X258500000Y-127000000D02*
X259500000Y-127000000D01*
X259500000Y-114000000D02*
X258500000Y-114000000D01*
X270500000Y-127000000D02*
X271500000Y-127000000D01*
X271500000Y-114000000D02*
X270500000Y-114000000D01*
X271500000Y-114000000D02*
X271500000Y-115000000D01*
X271500000Y-126000000D02*
X271500000Y-127000000D01*
%TO.C,SW58*%
X239500000Y-111500000D02*
X239500000Y-110500000D01*
X239500000Y-123500000D02*
X239500000Y-122500000D01*
X239500000Y-123500000D02*
X240500000Y-123500000D01*
X240500000Y-110500000D02*
X239500000Y-110500000D01*
X251500000Y-123500000D02*
X252500000Y-123500000D01*
X252500000Y-110500000D02*
X251500000Y-110500000D01*
X252500000Y-110500000D02*
X252500000Y-111500000D01*
X252500000Y-122500000D02*
X252500000Y-123500000D01*
%TO.C,SW21*%
X77500000Y-96000000D02*
X77500000Y-95000000D01*
X77500000Y-108000000D02*
X77500000Y-107000000D01*
X77500000Y-108000000D02*
X78500000Y-108000000D01*
X78500000Y-95000000D02*
X77500000Y-95000000D01*
X89500000Y-108000000D02*
X90500000Y-108000000D01*
X90500000Y-95000000D02*
X89500000Y-95000000D01*
X90500000Y-95000000D02*
X90500000Y-96000000D01*
X90500000Y-107000000D02*
X90500000Y-108000000D01*
%TO.C,SW14*%
X58500000Y-81500000D02*
X58500000Y-80500000D01*
X58500000Y-93500000D02*
X58500000Y-92500000D01*
X58500000Y-93500000D02*
X59500000Y-93500000D01*
X59500000Y-80500000D02*
X58500000Y-80500000D01*
X70500000Y-93500000D02*
X71500000Y-93500000D01*
X71500000Y-80500000D02*
X70500000Y-80500000D01*
X71500000Y-80500000D02*
X71500000Y-81500000D01*
X71500000Y-92500000D02*
X71500000Y-93500000D01*
%TO.C,SW52*%
X258500000Y-96000000D02*
X258500000Y-95000000D01*
X258500000Y-108000000D02*
X258500000Y-107000000D01*
X258500000Y-108000000D02*
X259500000Y-108000000D01*
X259500000Y-95000000D02*
X258500000Y-95000000D01*
X270500000Y-108000000D02*
X271500000Y-108000000D01*
X271500000Y-95000000D02*
X270500000Y-95000000D01*
X271500000Y-95000000D02*
X271500000Y-96000000D01*
X271500000Y-107000000D02*
X271500000Y-108000000D01*
%TO.C,SW39*%
X239500000Y-54500000D02*
X239500000Y-53500000D01*
X239500000Y-66500000D02*
X239500000Y-65500000D01*
X239500000Y-66500000D02*
X240500000Y-66500000D01*
X240500000Y-53500000D02*
X239500000Y-53500000D01*
X251500000Y-66500000D02*
X252500000Y-66500000D01*
X252500000Y-53500000D02*
X251500000Y-53500000D01*
X252500000Y-53500000D02*
X252500000Y-54500000D01*
X252500000Y-65500000D02*
X252500000Y-66500000D01*
%TO.C,SW2*%
X58500000Y-43500000D02*
X58500000Y-42500000D01*
X58500000Y-55500000D02*
X58500000Y-54500000D01*
X58500000Y-55500000D02*
X59500000Y-55500000D01*
X59500000Y-42500000D02*
X58500000Y-42500000D01*
X70500000Y-55500000D02*
X71500000Y-55500000D01*
X71500000Y-42500000D02*
X70500000Y-42500000D01*
X71500000Y-42500000D02*
X71500000Y-43500000D01*
X71500000Y-54500000D02*
X71500000Y-55500000D01*
%TO.C,SW42*%
X296500000Y-62500000D02*
X296500000Y-61500000D01*
X296500000Y-74500000D02*
X296500000Y-73500000D01*
X296500000Y-74500000D02*
X297500000Y-74500000D01*
X297500000Y-61500000D02*
X296500000Y-61500000D01*
X308500000Y-74500000D02*
X309500000Y-74500000D01*
X309500000Y-61500000D02*
X308500000Y-61500000D01*
X309500000Y-61500000D02*
X309500000Y-62500000D01*
X309500000Y-73500000D02*
X309500000Y-74500000D01*
%TO.C,SW30*%
X151075318Y-141879165D02*
X151575318Y-141013140D01*
X151075318Y-141879165D02*
X151941343Y-142379165D01*
X157075318Y-131486860D02*
X157575318Y-130620835D01*
X158441343Y-131120835D02*
X157575318Y-130620835D01*
X161467623Y-147879165D02*
X162333648Y-148379165D01*
X162833648Y-147513140D02*
X162333648Y-148379165D01*
X168833648Y-137120835D02*
X167967623Y-136620835D01*
X168833648Y-137120835D02*
X168333648Y-137986860D01*
%TO.C,SW35*%
X277500000Y-43500000D02*
X277500000Y-42500000D01*
X277500000Y-55500000D02*
X277500000Y-54500000D01*
X277500000Y-55500000D02*
X278500000Y-55500000D01*
X278500000Y-42500000D02*
X277500000Y-42500000D01*
X289500000Y-55500000D02*
X290500000Y-55500000D01*
X290500000Y-42500000D02*
X289500000Y-42500000D01*
X290500000Y-42500000D02*
X290500000Y-43500000D01*
X290500000Y-54500000D02*
X290500000Y-55500000D01*
%TO.C,SW29*%
X134620835Y-132379165D02*
X135120835Y-131513140D01*
X134620835Y-132379165D02*
X135486860Y-132879165D01*
X140620835Y-121986860D02*
X141120835Y-121120835D01*
X141986860Y-121620835D02*
X141120835Y-121120835D01*
X145013140Y-138379165D02*
X145879165Y-138879165D01*
X146379165Y-138013140D02*
X145879165Y-138879165D01*
X152379165Y-127620835D02*
X151513140Y-127120835D01*
X152379165Y-127620835D02*
X151879165Y-128486860D01*
%TO.C,SW18*%
X134500000Y-83500000D02*
X134500000Y-82500000D01*
X134500000Y-95500000D02*
X134500000Y-94500000D01*
X134500000Y-95500000D02*
X135500000Y-95500000D01*
X135500000Y-82500000D02*
X134500000Y-82500000D01*
X146500000Y-95500000D02*
X147500000Y-95500000D01*
X147500000Y-82500000D02*
X146500000Y-82500000D01*
X147500000Y-82500000D02*
X147500000Y-83500000D01*
X147500000Y-94500000D02*
X147500000Y-95500000D01*
%TO.C,SW17*%
X115500000Y-80000000D02*
X115500000Y-79000000D01*
X115500000Y-92000000D02*
X115500000Y-91000000D01*
X115500000Y-92000000D02*
X116500000Y-92000000D01*
X116500000Y-79000000D02*
X115500000Y-79000000D01*
X127500000Y-92000000D02*
X128500000Y-92000000D01*
X128500000Y-79000000D02*
X127500000Y-79000000D01*
X128500000Y-79000000D02*
X128500000Y-80000000D01*
X128500000Y-91000000D02*
X128500000Y-92000000D01*
%TO.C,SW37*%
X201500000Y-64500000D02*
X201500000Y-63500000D01*
X201500000Y-76500000D02*
X201500000Y-75500000D01*
X201500000Y-76500000D02*
X202500000Y-76500000D01*
X202500000Y-63500000D02*
X201500000Y-63500000D01*
X213500000Y-76500000D02*
X214500000Y-76500000D01*
X214500000Y-63500000D02*
X213500000Y-63500000D01*
X214500000Y-63500000D02*
X214500000Y-64500000D01*
X214500000Y-75500000D02*
X214500000Y-76500000D01*
%TO.C,SW44*%
X220500000Y-80000000D02*
X220500000Y-79000000D01*
X220500000Y-92000000D02*
X220500000Y-91000000D01*
X220500000Y-92000000D02*
X221500000Y-92000000D01*
X221500000Y-79000000D02*
X220500000Y-79000000D01*
X232500000Y-92000000D02*
X233500000Y-92000000D01*
X233500000Y-79000000D02*
X232500000Y-79000000D01*
X233500000Y-79000000D02*
X233500000Y-80000000D01*
X233500000Y-91000000D02*
X233500000Y-92000000D01*
%TO.C,SW12*%
X134500000Y-64500000D02*
X134500000Y-63500000D01*
X134500000Y-76500000D02*
X134500000Y-75500000D01*
X134500000Y-76500000D02*
X135500000Y-76500000D01*
X135500000Y-63500000D02*
X134500000Y-63500000D01*
X146500000Y-76500000D02*
X147500000Y-76500000D01*
X147500000Y-63500000D02*
X146500000Y-63500000D01*
X147500000Y-63500000D02*
X147500000Y-64500000D01*
X147500000Y-75500000D02*
X147500000Y-76500000D01*
%TO.C,SW7*%
X39500000Y-62500000D02*
X39500000Y-61500000D01*
X39500000Y-74500000D02*
X39500000Y-73500000D01*
X39500000Y-74500000D02*
X40500000Y-74500000D01*
X40500000Y-61500000D02*
X39500000Y-61500000D01*
X51500000Y-74500000D02*
X52500000Y-74500000D01*
X52500000Y-61500000D02*
X51500000Y-61500000D01*
X52500000Y-61500000D02*
X52500000Y-62500000D01*
X52500000Y-73500000D02*
X52500000Y-74500000D01*
%TO.C,SW60*%
X277500000Y-119500000D02*
X277500000Y-118500000D01*
X277500000Y-131500000D02*
X277500000Y-130500000D01*
X277500000Y-131500000D02*
X278500000Y-131500000D01*
X278500000Y-118500000D02*
X277500000Y-118500000D01*
X289500000Y-131500000D02*
X290500000Y-131500000D01*
X290500000Y-118500000D02*
X289500000Y-118500000D01*
X290500000Y-118500000D02*
X290500000Y-119500000D01*
X290500000Y-130500000D02*
X290500000Y-131500000D01*
%TO.C,SW31*%
X201500000Y-45500000D02*
X201500000Y-44500000D01*
X201500000Y-57500000D02*
X201500000Y-56500000D01*
X201500000Y-57500000D02*
X202500000Y-57500000D01*
X202500000Y-44500000D02*
X201500000Y-44500000D01*
X213500000Y-57500000D02*
X214500000Y-57500000D01*
X214500000Y-44500000D02*
X213500000Y-44500000D01*
X214500000Y-44500000D02*
X214500000Y-45500000D01*
X214500000Y-56500000D02*
X214500000Y-57500000D01*
%TO.C,SW33*%
X239500000Y-35500000D02*
X239500000Y-34500000D01*
X239500000Y-47500000D02*
X239500000Y-46500000D01*
X239500000Y-47500000D02*
X240500000Y-47500000D01*
X240500000Y-34500000D02*
X239500000Y-34500000D01*
X251500000Y-47500000D02*
X252500000Y-47500000D01*
X252500000Y-34500000D02*
X251500000Y-34500000D01*
X252500000Y-34500000D02*
X252500000Y-35500000D01*
X252500000Y-46500000D02*
X252500000Y-47500000D01*
%TD*%
%LPC*%
D12*
%TO.C,D116*%
X185851800Y-135368319D03*
%TD*%
%TO.C,D117*%
X202306282Y-125868319D03*
%TD*%
D13*
%TO.C,SW56*%
X205500000Y-130000000D03*
%TD*%
%TO.C,SW55*%
X189045517Y-139500000D03*
%TD*%
%TO.C,SW50*%
X227000000Y-104500000D03*
%TD*%
%TO.C,SW19*%
X46000000Y-106000000D03*
%TD*%
%TO.C,SW28*%
X122000000Y-123500000D03*
%TD*%
%TO.C,SW16*%
X103000000Y-79000000D03*
%TD*%
%TO.C,SW8*%
X65000000Y-68000000D03*
%TD*%
%TO.C,SW38*%
X227000000Y-66500000D03*
%TD*%
%TO.C,SW10*%
X103000000Y-60000000D03*
%TD*%
%TO.C,SW24*%
X141000000Y-108000000D03*
%TD*%
%TO.C,SW48*%
X303000000Y-87000000D03*
%TD*%
%TO.C,SW54*%
X303000000Y-106000000D03*
%TD*%
%TO.C,SW46*%
X265000000Y-82500000D03*
%TD*%
D14*
%TO.C,REF\u002A\u002A*%
X173000000Y-55500000D03*
X173000000Y-54500000D03*
X173000000Y-53500000D03*
X173000000Y-52500000D03*
X173000000Y-51500000D03*
X173000000Y-50500000D03*
X173000000Y-49500000D03*
X173000000Y-48500000D03*
%TD*%
D13*
%TO.C,SW23*%
X122000000Y-104500000D03*
%TD*%
%TO.C,SW5*%
X122000000Y-47500000D03*
%TD*%
%TO.C,SW36*%
X303000000Y-49000000D03*
%TD*%
D15*
%TO.C,REF\u002A\u002A*%
X141000000Y-36000000D03*
%TD*%
D16*
%TO.C,J2*%
X177487500Y-78000000D03*
X184487500Y-78000000D03*
D17*
X187187500Y-80300000D03*
X186087500Y-75700000D03*
X182087500Y-75700000D03*
X179087500Y-75700000D03*
%TD*%
D15*
%TO.C,REF\u002A\u002A*%
X308000000Y-130000000D03*
%TD*%
D13*
%TO.C,SW15*%
X84000000Y-82500000D03*
%TD*%
%TO.C,SW20*%
X65000000Y-106000000D03*
%TD*%
%TO.C,SW13*%
X46000000Y-87000000D03*
%TD*%
D15*
%TO.C,REF\u002A\u002A*%
X167000000Y-128000000D03*
%TD*%
D13*
%TO.C,SW40*%
X265000000Y-63500000D03*
%TD*%
%TO.C,SW9*%
X84000000Y-63500000D03*
%TD*%
D15*
%TO.C,REF\u002A\u002A*%
X41000000Y-130000000D03*
%TD*%
D13*
%TO.C,SW34*%
X265000000Y-44500000D03*
%TD*%
%TO.C,SW26*%
X84000000Y-120500000D03*
%TD*%
%TO.C,SW11*%
X122000000Y-66500000D03*
%TD*%
%TO.C,SW49*%
X208000000Y-108000000D03*
%TD*%
%TO.C,SW41*%
X284000000Y-68000000D03*
%TD*%
%TO.C,SW25*%
X65000000Y-125000000D03*
%TD*%
%TO.C,SW51*%
X246000000Y-98000000D03*
%TD*%
D15*
%TO.C,REF\u002A\u002A*%
X41000000Y-36000000D03*
%TD*%
D13*
%TO.C,SW57*%
X227000000Y-123500000D03*
%TD*%
%TO.C,SW53*%
X284000000Y-106000000D03*
%TD*%
%TO.C,SW4*%
X103000000Y-41000000D03*
%TD*%
D16*
%TO.C,J1*%
X171512500Y-78000000D03*
X164512500Y-78000000D03*
D17*
X161812500Y-75700000D03*
X162912500Y-80300000D03*
X166912500Y-80300000D03*
X169912500Y-80300000D03*
%TD*%
D13*
%TO.C,SW45*%
X246000000Y-79000000D03*
%TD*%
%TO.C,SW3*%
X84000000Y-44500000D03*
%TD*%
%TO.C,SW32*%
X227000000Y-47500000D03*
%TD*%
%TO.C,SW27*%
X103000000Y-117000000D03*
%TD*%
%TO.C,SW6*%
X141000000Y-51000000D03*
%TD*%
%TO.C,SW22*%
X103000000Y-98000000D03*
%TD*%
D15*
%TO.C,REF\u002A\u002A*%
X207999999Y-35999999D03*
%TD*%
%TO.C,REF\u002A\u002A*%
X308000001Y-35999999D03*
%TD*%
D13*
%TO.C,SW1*%
X46000000Y-49000000D03*
%TD*%
%TO.C,SW43*%
X208000000Y-89000000D03*
%TD*%
%TO.C,SW47*%
X284000000Y-87000000D03*
%TD*%
%TO.C,SW59*%
X265000000Y-120500000D03*
%TD*%
%TO.C,SW58*%
X246000000Y-117000000D03*
%TD*%
%TO.C,SW21*%
X84000000Y-101500000D03*
%TD*%
%TO.C,SW14*%
X65000000Y-87000000D03*
%TD*%
%TO.C,SW52*%
X265000000Y-101500000D03*
%TD*%
%TO.C,SW39*%
X246000000Y-60000000D03*
%TD*%
%TO.C,SW2*%
X65000000Y-49000000D03*
%TD*%
D15*
%TO.C,REF\u002A\u002A*%
X182000000Y-128000000D03*
%TD*%
D13*
%TO.C,SW42*%
X303000000Y-68000000D03*
%TD*%
%TO.C,SW30*%
X159954483Y-139500000D03*
%TD*%
D14*
%TO.C,REF\u002A\u002A*%
X176000000Y-123500000D03*
X176000000Y-122500000D03*
X176000000Y-121500000D03*
X176000000Y-120500000D03*
X176000000Y-119500000D03*
X176000000Y-118500000D03*
X176000000Y-117500000D03*
X176000000Y-116500000D03*
%TD*%
D13*
%TO.C,SW35*%
X284000000Y-49000000D03*
%TD*%
D14*
%TO.C,REF\u002A\u002A*%
X173000000Y-123500000D03*
X173000000Y-122500000D03*
X173000000Y-121500000D03*
X173000000Y-120500000D03*
X173000000Y-119500000D03*
X173000000Y-118500000D03*
X173000000Y-117500000D03*
X173000000Y-116500000D03*
%TD*%
D13*
%TO.C,SW29*%
X143500000Y-130000000D03*
%TD*%
%TO.C,SW18*%
X141000000Y-89000000D03*
%TD*%
%TO.C,SW17*%
X122000000Y-85500000D03*
%TD*%
%TO.C,SW37*%
X208000000Y-70000000D03*
%TD*%
%TO.C,SW44*%
X227000000Y-85500000D03*
%TD*%
%TO.C,SW12*%
X141000000Y-70000000D03*
%TD*%
%TO.C,SW7*%
X46000000Y-68000000D03*
%TD*%
D14*
%TO.C,REF\u002A\u002A*%
X176000000Y-55500000D03*
X176000000Y-54500000D03*
X176000000Y-53500000D03*
X176000000Y-52500000D03*
X176000000Y-51500000D03*
X176000000Y-50500000D03*
X176000000Y-49500000D03*
X176000000Y-48500000D03*
%TD*%
D13*
%TO.C,SW60*%
X284000000Y-125000000D03*
%TD*%
%TO.C,SW31*%
X208000000Y-51000000D03*
%TD*%
%TO.C,SW33*%
X246000000Y-41000000D03*
%TD*%
D18*
%TO.C,D108*%
X283325000Y-81825000D03*
%TD*%
%TO.C,D103*%
X302325000Y-62825000D03*
%TD*%
%TO.C,D100*%
X245325000Y-54825000D03*
%TD*%
%TO.C,D105*%
X226325000Y-80325000D03*
%TD*%
%TO.C,D118*%
X226325000Y-118325000D03*
%TD*%
%TO.C,D63*%
X64325000Y-43825000D03*
%TD*%
%TO.C,D111*%
X226325000Y-99325000D03*
%TD*%
%TO.C,D85*%
X140325000Y-102825000D03*
%TD*%
%TO.C,D98*%
X207325000Y-64825000D03*
%TD*%
%TO.C,D106*%
X245325000Y-73825000D03*
%TD*%
%TO.C,D62*%
X45325000Y-43825000D03*
%TD*%
%TO.C,D86*%
X64325000Y-119825000D03*
%TD*%
%TO.C,D79*%
X140325000Y-83825000D03*
%TD*%
%TO.C,D101*%
X264325000Y-58325000D03*
%TD*%
%TO.C,D65*%
X102325000Y-35825000D03*
%TD*%
%TO.C,D104*%
X207325000Y-83825000D03*
%TD*%
%TO.C,D67*%
X140325000Y-45825000D03*
%TD*%
%TO.C,D99*%
X226325000Y-61325000D03*
%TD*%
%TO.C,D120*%
X264325000Y-115325000D03*
%TD*%
%TO.C,D87*%
X83325000Y-115325000D03*
%TD*%
%TO.C,D88*%
X102325000Y-111825000D03*
%TD*%
%TO.C,D89*%
X121325000Y-118325000D03*
%TD*%
%TO.C,D76*%
X83325000Y-77325000D03*
%TD*%
%TO.C,D107*%
X264325000Y-77325000D03*
%TD*%
%TO.C,D83*%
X102325000Y-92825000D03*
%TD*%
%TO.C,D110*%
X207325000Y-102825000D03*
%TD*%
%TO.C,D75*%
X64325000Y-81825000D03*
%TD*%
%TO.C,D80*%
X45325000Y-100825000D03*
%TD*%
%TO.C,D69*%
X64325000Y-62825000D03*
%TD*%
%TO.C,D74*%
X45325000Y-81825000D03*
%TD*%
%TO.C,D102*%
X283325000Y-62825000D03*
%TD*%
%TO.C,D72*%
X121325000Y-61325000D03*
%TD*%
%TO.C,D112*%
X245325000Y-92825000D03*
%TD*%
%TO.C,D109*%
X302325000Y-81825000D03*
%TD*%
%TO.C,D78*%
X121325000Y-80325000D03*
%TD*%
%TO.C,D82*%
X83325000Y-96325000D03*
%TD*%
%TO.C,D66*%
X121325000Y-42325000D03*
%TD*%
%TO.C,D121*%
X283325000Y-119825000D03*
%TD*%
%TO.C,D115*%
X302325000Y-100825000D03*
%TD*%
%TO.C,D81*%
X64325000Y-100825000D03*
%TD*%
%TO.C,D114*%
X283325000Y-100825000D03*
%TD*%
%TO.C,D119*%
X245325000Y-111825000D03*
%TD*%
%TO.C,D92*%
X207325000Y-45825000D03*
%TD*%
D19*
%TO.C,D90*%
X145481283Y-125168319D03*
%TD*%
D18*
%TO.C,D113*%
X264325000Y-96325000D03*
%TD*%
%TO.C,D73*%
X140325000Y-64825000D03*
%TD*%
%TO.C,D68*%
X45325000Y-62825000D03*
%TD*%
%TO.C,D94*%
X245325000Y-35825000D03*
%TD*%
D19*
%TO.C,D91*%
X161935765Y-134668320D03*
%TD*%
D18*
%TO.C,D95*%
X264325000Y-39325000D03*
%TD*%
%TO.C,D84*%
X121325000Y-99325000D03*
%TD*%
%TO.C,D96*%
X283325000Y-43825000D03*
%TD*%
%TO.C,D97*%
X302325000Y-43825000D03*
%TD*%
%TO.C,D93*%
X226325000Y-42325000D03*
%TD*%
%TO.C,D70*%
X83325000Y-58325000D03*
%TD*%
%TO.C,D77*%
X102325000Y-73825000D03*
%TD*%
%TO.C,D64*%
X83325000Y-39325000D03*
%TD*%
%TO.C,D71*%
X102325000Y-54825000D03*
%TD*%
%LPD*%
M02*
