M48
; DRILL file KiCad 10.0.4 date 2026-06-30T14:49:16
; FORMAT={-:-/ absolute / metric / decimal}
; #@! TF.CreationDate,2026-06-30T14:49:16-04:00
; #@! TF.GenerationSoftware,Kicad,Pcbnew,10.0.4
; #@! TF.FileFunction,NonPlated,1,2,NPTH
FMAT,2
METRIC
; #@! TA.AperFunction,NonPlated,NPTH,ComponentDrill
T1C0.600
; #@! TA.AperFunction,NonPlated,NPTH,ComponentDrill
T2C0.800
; #@! TA.AperFunction,NonPlated,NPTH,ComponentDrill
T3C1.800
; #@! TA.AperFunction,NonPlated,NPTH,ComponentDrill
T4C5.250
%
G90
G05
T1
X173.0Y-48.5
X173.0Y-49.5
X173.0Y-50.5
X173.0Y-51.5
X173.0Y-52.5
X173.0Y-53.5
X173.0Y-54.5
X173.0Y-55.5
X173.0Y-116.5
X173.0Y-117.5
X173.0Y-118.5
X173.0Y-119.5
X173.0Y-120.5
X173.0Y-121.5
X173.0Y-122.5
X173.0Y-123.5
X176.0Y-48.5
X176.0Y-49.5
X176.0Y-50.5
X176.0Y-51.5
X176.0Y-52.5
X176.0Y-53.5
X176.0Y-54.5
X176.0Y-55.5
X176.0Y-116.5
X176.0Y-117.5
X176.0Y-118.5
X176.0Y-119.5
X176.0Y-120.5
X176.0Y-121.5
X176.0Y-122.5
X176.0Y-123.5
T2
X164.512Y-78.0
X171.512Y-78.0
X177.487Y-78.0
X184.487Y-78.0
T4
X46.0Y-49.0
X46.0Y-68.0
X46.0Y-87.0
X46.0Y-106.0
X65.0Y-49.0
X65.0Y-68.0
X65.0Y-87.0
X65.0Y-106.0
X65.0Y-125.0
X84.0Y-44.5
X84.0Y-63.5
X84.0Y-82.5
X84.0Y-101.5
X84.0Y-120.5
X103.0Y-41.0
X103.0Y-60.0
X103.0Y-79.0
X103.0Y-98.0
X103.0Y-117.0
X122.0Y-47.5
X122.0Y-66.5
X122.0Y-85.5
X122.0Y-104.5
X122.0Y-123.5
X141.0Y-51.0
X141.0Y-70.0
X141.0Y-89.0
X141.0Y-108.0
X143.5Y-130.0
X159.954Y-139.5
X189.046Y-139.5
X205.5Y-130.0
X208.0Y-51.0
X208.0Y-70.0
X208.0Y-89.0
X208.0Y-108.0
X227.0Y-47.5
X227.0Y-66.5
X227.0Y-85.5
X227.0Y-104.5
X227.0Y-123.5
X246.0Y-41.0
X246.0Y-60.0
X246.0Y-79.0
X246.0Y-98.0
X246.0Y-117.0
X265.0Y-44.5
X265.0Y-63.5
X265.0Y-82.5
X265.0Y-101.5
X265.0Y-120.5
X284.0Y-49.0
X284.0Y-68.0
X284.0Y-87.0
X284.0Y-106.0
X284.0Y-125.0
X303.0Y-49.0
X303.0Y-68.0
X303.0Y-87.0
X303.0Y-106.0
T3
G00X45.325Y-43.525
M15
G01X45.325Y-44.125
M16
G05
G00X45.325Y-62.525
M15
G01X45.325Y-63.125
M16
G05
G00X45.325Y-81.525
M15
G01X45.325Y-82.125
M16
G05
G00X45.325Y-100.525
M15
G01X45.325Y-101.125
M16
G05
G00X64.325Y-43.525
M15
G01X64.325Y-44.125
M16
G05
G00X64.325Y-62.525
M15
G01X64.325Y-63.125
M16
G05
G00X64.325Y-81.525
M15
G01X64.325Y-82.125
M16
G05
G00X64.325Y-100.525
M15
G01X64.325Y-101.125
M16
G05
G00X64.325Y-119.525
M15
G01X64.325Y-120.125
M16
G05
G00X83.325Y-39.025
M15
G01X83.325Y-39.625
M16
G05
G00X83.325Y-58.025
M15
G01X83.325Y-58.625
M16
G05
G00X83.325Y-77.025
M15
G01X83.325Y-77.625
M16
G05
G00X83.325Y-96.025
M15
G01X83.325Y-96.625
M16
G05
G00X83.325Y-115.025
M15
G01X83.325Y-115.625
M16
G05
G00X102.325Y-35.525
M15
G01X102.325Y-36.125
M16
G05
G00X102.325Y-54.525
M15
G01X102.325Y-55.125
M16
G05
G00X102.325Y-73.525
M15
G01X102.325Y-74.125
M16
G05
G00X102.325Y-92.525
M15
G01X102.325Y-93.125
M16
G05
G00X102.325Y-111.525
M15
G01X102.325Y-112.125
M16
G05
G00X121.325Y-42.025
M15
G01X121.325Y-42.625
M16
G05
G00X121.325Y-61.025
M15
G01X121.325Y-61.625
M16
G05
G00X121.325Y-80.025
M15
G01X121.325Y-80.625
M16
G05
G00X121.325Y-99.025
M15
G01X121.325Y-99.625
M16
G05
G00X121.325Y-118.025
M15
G01X121.325Y-118.625
M16
G05
G00X140.325Y-45.525
M15
G01X140.325Y-46.125
M16
G05
G00X140.325Y-64.525
M15
G01X140.325Y-65.125
M16
G05
G00X140.325Y-83.525
M15
G01X140.325Y-84.125
M16
G05
G00X140.325Y-102.525
M15
G01X140.325Y-103.125
M16
G05
G00X145.631Y-124.909
M15
G01X145.331Y-125.428
M16
G05
G00X162.086Y-134.409
M15
G01X161.786Y-134.928
M16
G05
G00X185.702Y-135.109
M15
G01X186.002Y-135.628
M16
G05
G00X202.156Y-125.609
M15
G01X202.456Y-126.128
M16
G05
G00X207.325Y-45.525
M15
G01X207.325Y-46.125
M16
G05
G00X207.325Y-64.525
M15
G01X207.325Y-65.125
M16
G05
G00X207.325Y-83.525
M15
G01X207.325Y-84.125
M16
G05
G00X207.325Y-102.525
M15
G01X207.325Y-103.125
M16
G05
G00X226.325Y-42.025
M15
G01X226.325Y-42.625
M16
G05
G00X226.325Y-61.025
M15
G01X226.325Y-61.625
M16
G05
G00X226.325Y-80.025
M15
G01X226.325Y-80.625
M16
G05
G00X226.325Y-99.025
M15
G01X226.325Y-99.625
M16
G05
G00X226.325Y-118.025
M15
G01X226.325Y-118.625
M16
G05
G00X245.325Y-35.525
M15
G01X245.325Y-36.125
M16
G05
G00X245.325Y-54.525
M15
G01X245.325Y-55.125
M16
G05
G00X245.325Y-73.525
M15
G01X245.325Y-74.125
M16
G05
G00X245.325Y-92.525
M15
G01X245.325Y-93.125
M16
G05
G00X245.325Y-111.525
M15
G01X245.325Y-112.125
M16
G05
G00X264.325Y-39.025
M15
G01X264.325Y-39.625
M16
G05
G00X264.325Y-58.025
M15
G01X264.325Y-58.625
M16
G05
G00X264.325Y-77.025
M15
G01X264.325Y-77.625
M16
G05
G00X264.325Y-96.025
M15
G01X264.325Y-96.625
M16
G05
G00X264.325Y-115.025
M15
G01X264.325Y-115.625
M16
G05
G00X283.325Y-43.525
M15
G01X283.325Y-44.125
M16
G05
G00X283.325Y-62.525
M15
G01X283.325Y-63.125
M16
G05
G00X283.325Y-81.525
M15
G01X283.325Y-82.125
M16
G05
G00X283.325Y-100.525
M15
G01X283.325Y-101.125
M16
G05
G00X283.325Y-119.525
M15
G01X283.325Y-120.125
M16
G05
G00X302.325Y-43.525
M15
G01X302.325Y-44.125
M16
G05
G00X302.325Y-62.525
M15
G01X302.325Y-63.125
M16
G05
G00X302.325Y-81.525
M15
G01X302.325Y-82.125
M16
G05
G00X302.325Y-100.525
M15
G01X302.325Y-101.125
M16
G05
M30
