M48
; DRILL file KiCad 10.0.5 date 2026-07-25T08:51:23
; FORMAT={-:-/ absolute / metric / decimal}
; #@! TF.CreationDate,2026-07-25T08:51:23-04:00
; #@! TF.GenerationSoftware,Kicad,Pcbnew,10.0.5
; #@! TF.FileFunction,NonPlated,1,2,NPTH
FMAT,2
METRIC
; #@! TA.AperFunction,NonPlated,NPTH,ComponentDrill
T1C0.600
; #@! TA.AperFunction,NonPlated,NPTH,ComponentDrill
T2C0.800
; #@! TA.AperFunction,NonPlated,NPTH,ComponentDrill
T3C1.700
; #@! TA.AperFunction,NonPlated,NPTH,ComponentDrill
T4C2.000
; #@! TA.AperFunction,NonPlated,NPTH,ComponentDrill
T5C4.000
%
G90
G05
T1
X173.0Y-48.5
X173.0Y-49.5
X173.0Y-50.5
X173.0Y-51.5
X173.0Y-52.5
X173.0Y-53.5
X173.0Y-54.5
X173.0Y-55.5
X173.0Y-116.5
X173.0Y-117.5
X173.0Y-118.5
X173.0Y-119.5
X173.0Y-120.5
X173.0Y-121.5
X173.0Y-122.5
X173.0Y-123.5
X176.0Y-48.5
X176.0Y-49.5
X176.0Y-50.5
X176.0Y-51.5
X176.0Y-52.5
X176.0Y-53.5
X176.0Y-54.5
X176.0Y-55.5
X176.0Y-116.5
X176.0Y-117.5
X176.0Y-118.5
X176.0Y-119.5
X176.0Y-120.5
X176.0Y-121.5
X176.0Y-122.5
X176.0Y-123.5
T2
X164.512Y-78.0
X171.512Y-78.0
X177.487Y-78.0
X184.487Y-78.0
T3
X40.92Y-49.0
X40.92Y-68.0
X40.92Y-87.0
X40.92Y-106.0
X51.08Y-49.0
X51.08Y-68.0
X51.08Y-87.0
X51.08Y-106.0
X59.92Y-49.0
X59.92Y-68.0
X59.92Y-87.0
X59.92Y-106.0
X59.92Y-125.0
X70.08Y-49.0
X70.08Y-68.0
X70.08Y-87.0
X70.08Y-106.0
X70.08Y-125.0
X78.92Y-44.5
X78.92Y-63.5
X78.92Y-82.5
X78.92Y-101.5
X78.92Y-120.5
X89.08Y-44.5
X89.08Y-63.5
X89.08Y-82.5
X89.08Y-101.5
X89.08Y-120.5
X97.92Y-41.0
X97.92Y-60.0
X97.92Y-79.0
X97.92Y-98.0
X97.92Y-117.0
X108.08Y-41.0
X108.08Y-60.0
X108.08Y-79.0
X108.08Y-98.0
X108.08Y-117.0
X116.92Y-47.5
X116.92Y-66.5
X116.92Y-85.5
X116.92Y-104.5
X116.92Y-123.5
X127.08Y-47.5
X127.08Y-66.5
X127.08Y-85.5
X127.08Y-104.5
X127.08Y-123.5
X135.92Y-51.0
X135.92Y-70.0
X135.92Y-89.0
X135.92Y-108.0
X139.101Y-127.46
X146.08Y-51.0
X146.08Y-70.0
X146.08Y-89.0
X146.08Y-108.0
X147.899Y-132.54
X155.555Y-136.96
X164.354Y-142.04
X184.646Y-142.04
X193.445Y-136.96
X201.101Y-132.54
X202.92Y-51.0
X202.92Y-70.0
X202.92Y-89.0
X202.92Y-108.0
X209.899Y-127.46
X213.08Y-51.0
X213.08Y-70.0
X213.08Y-89.0
X213.08Y-108.0
X221.92Y-47.5
X221.92Y-66.5
X221.92Y-85.5
X221.92Y-104.5
X221.92Y-123.5
X232.08Y-47.5
X232.08Y-66.5
X232.08Y-85.5
X232.08Y-104.5
X232.08Y-123.5
X240.92Y-41.0
X240.92Y-60.0
X240.92Y-79.0
X240.92Y-98.0
X240.92Y-117.0
X251.08Y-41.0
X251.08Y-60.0
X251.08Y-79.0
X251.08Y-98.0
X251.08Y-117.0
X259.92Y-44.5
X259.92Y-63.5
X259.92Y-82.5
X259.92Y-101.5
X259.92Y-120.5
X270.08Y-44.5
X270.08Y-63.5
X270.08Y-82.5
X270.08Y-101.5
X270.08Y-120.5
X278.92Y-49.0
X278.92Y-68.0
X278.92Y-87.0
X278.92Y-106.0
X278.92Y-125.0
X289.08Y-49.0
X289.08Y-68.0
X289.08Y-87.0
X289.08Y-106.0
X289.08Y-125.0
X297.92Y-49.0
X297.92Y-68.0
X297.92Y-87.0
X297.92Y-106.0
X308.08Y-49.0
X308.08Y-68.0
X308.08Y-87.0
X308.08Y-106.0
T5
X46.0Y-49.0
X46.0Y-68.0
X46.0Y-87.0
X46.0Y-106.0
X65.0Y-49.0
X65.0Y-68.0
X65.0Y-87.0
X65.0Y-106.0
X65.0Y-125.0
X84.0Y-44.5
X84.0Y-63.5
X84.0Y-82.5
X84.0Y-101.5
X84.0Y-120.5
X103.0Y-41.0
X103.0Y-60.0
X103.0Y-79.0
X103.0Y-98.0
X103.0Y-117.0
X122.0Y-47.5
X122.0Y-66.5
X122.0Y-85.5
X122.0Y-104.5
X122.0Y-123.5
X141.0Y-51.0
X141.0Y-70.0
X141.0Y-89.0
X141.0Y-108.0
X143.5Y-130.0
X159.954Y-139.5
X189.046Y-139.5
X205.5Y-130.0
X208.0Y-51.0
X208.0Y-70.0
X208.0Y-89.0
X208.0Y-108.0
X227.0Y-47.5
X227.0Y-66.5
X227.0Y-85.5
X227.0Y-104.5
X227.0Y-123.5
X246.0Y-41.0
X246.0Y-60.0
X246.0Y-79.0
X246.0Y-98.0
X246.0Y-117.0
X265.0Y-44.5
X265.0Y-63.5
X265.0Y-82.5
X265.0Y-101.5
X265.0Y-120.5
X284.0Y-49.0
X284.0Y-68.0
X284.0Y-87.0
X284.0Y-106.0
X284.0Y-125.0
X303.0Y-49.0
X303.0Y-68.0
X303.0Y-87.0
X303.0Y-106.0
T4
G00X46.0Y-43.8
M15
G01X46.0Y-44.2
M16
G05
G00X46.0Y-62.8
M15
G01X46.0Y-63.2
M16
G05
G00X46.0Y-81.8
M15
G01X46.0Y-82.2
M16
G05
G00X46.0Y-100.8
M15
G01X46.0Y-101.2
M16
G05
G00X65.0Y-43.8
M15
G01X65.0Y-44.2
M16
G05
G00X65.0Y-62.8
M15
G01X65.0Y-63.2
M16
G05
G00X65.0Y-81.8
M15
G01X65.0Y-82.2
M16
G05
G00X65.0Y-100.8
M15
G01X65.0Y-101.2
M16
G05
G00X65.0Y-119.8
M15
G01X65.0Y-120.2
M16
G05
G00X84.0Y-39.3
M15
G01X84.0Y-39.7
M16
G05
G00X84.0Y-58.3
M15
G01X84.0Y-58.7
M16
G05
G00X84.0Y-77.3
M15
G01X84.0Y-77.7
M16
G05
G00X84.0Y-96.3
M15
G01X84.0Y-96.7
M16
G05
G00X84.0Y-115.3
M15
G01X84.0Y-115.7
M16
G05
G00X103.0Y-35.8
M15
G01X103.0Y-36.2
M16
G05
G00X103.0Y-54.8
M15
G01X103.0Y-55.2
M16
G05
G00X103.0Y-73.8
M15
G01X103.0Y-74.2
M16
G05
G00X103.0Y-92.8
M15
G01X103.0Y-93.2
M16
G05
G00X103.0Y-111.8
M15
G01X103.0Y-112.2
M16
G05
G00X122.0Y-42.3
M15
G01X122.0Y-42.7
M16
G05
G00X122.0Y-61.3
M15
G01X122.0Y-61.7
M16
G05
G00X122.0Y-80.3
M15
G01X122.0Y-80.7
M16
G05
G00X122.0Y-99.3
M15
G01X122.0Y-99.7
M16
G05
G00X122.0Y-118.3
M15
G01X122.0Y-118.7
M16
G05
G00X141.0Y-45.8
M15
G01X141.0Y-46.2
M16
G05
G00X141.0Y-64.8
M15
G01X141.0Y-65.2
M16
G05
G00X141.0Y-83.8
M15
G01X141.0Y-84.2
M16
G05
G00X141.0Y-102.8
M15
G01X141.0Y-103.2
M16
G05
G00X146.1Y-125.497
M15
G01X145.9Y-125.843
M16
G05
G00X162.554Y-134.997
M15
G01X162.354Y-135.343
M16
G05
G00X186.446Y-134.997
M15
G01X186.646Y-135.343
M16
G05
G00X202.9Y-125.497
M15
G01X203.1Y-125.843
M16
G05
G00X208.0Y-45.8
M15
G01X208.0Y-46.2
M16
G05
G00X208.0Y-64.8
M15
G01X208.0Y-65.2
M16
G05
G00X208.0Y-83.8
M15
G01X208.0Y-84.2
M16
G05
G00X208.0Y-102.8
M15
G01X208.0Y-103.2
M16
G05
G00X227.0Y-42.3
M15
G01X227.0Y-42.7
M16
G05
G00X227.0Y-61.3
M15
G01X227.0Y-61.7
M16
G05
G00X227.0Y-80.3
M15
G01X227.0Y-80.7
M16
G05
G00X227.0Y-99.3
M15
G01X227.0Y-99.7
M16
G05
G00X227.0Y-118.3
M15
G01X227.0Y-118.7
M16
G05
G00X246.0Y-35.8
M15
G01X246.0Y-36.2
M16
G05
G00X246.0Y-54.8
M15
G01X246.0Y-55.2
M16
G05
G00X246.0Y-73.8
M15
G01X246.0Y-74.2
M16
G05
G00X246.0Y-92.8
M15
G01X246.0Y-93.2
M16
G05
G00X246.0Y-111.8
M15
G01X246.0Y-112.2
M16
G05
G00X265.0Y-39.3
M15
G01X265.0Y-39.7
M16
G05
G00X265.0Y-58.3
M15
G01X265.0Y-58.7
M16
G05
G00X265.0Y-77.3
M15
G01X265.0Y-77.7
M16
G05
G00X265.0Y-96.3
M15
G01X265.0Y-96.7
M16
G05
G00X265.0Y-115.3
M15
G01X265.0Y-115.7
M16
G05
G00X284.0Y-43.8
M15
G01X284.0Y-44.2
M16
G05
G00X284.0Y-62.8
M15
G01X284.0Y-63.2
M16
G05
G00X284.0Y-81.8
M15
G01X284.0Y-82.2
M16
G05
G00X284.0Y-100.8
M15
G01X284.0Y-101.2
M16
G05
G00X284.0Y-119.8
M15
G01X284.0Y-120.2
M16
G05
G00X303.0Y-43.8
M15
G01X303.0Y-44.2
M16
G05
G00X303.0Y-62.8
M15
G01X303.0Y-63.2
M16
G05
G00X303.0Y-81.8
M15
G01X303.0Y-82.2
M16
G05
G00X303.0Y-100.8
M15
G01X303.0Y-101.2
M16
G05
M30
