M48
; DRILL file KiCad 10.0.4 date 2026-06-30T14:49:16
; FORMAT={-:-/ absolute / metric / decimal}
; #@! TF.CreationDate,2026-06-30T14:49:16-04:00
; #@! TF.GenerationSoftware,Kicad,Pcbnew,10.0.4
; #@! TF.FileFunction,Plated,1,2,PTH
FMAT,2
METRIC
; #@! TA.AperFunction,Plated,PTH,ViaDrill
T1C0.300
; #@! TA.AperFunction,Plated,PTH,ComponentDrill
T2C0.900
; #@! TA.AperFunction,Plated,PTH,ComponentDrill
T3C1.000
; #@! TA.AperFunction,Plated,PTH,ComponentDrill
T4C3.000
; #@! TA.AperFunction,Plated,PTH,ComponentDrill
T5C3.200
%
G90
G05
T1
X52.0Y-42.55
X52.0Y-62.0
X52.0Y-81.0
X52.0Y-100.0
X68.0Y-119.825
X149.5Y-85.5
X149.5Y-104.5
X154.773Y-132.727
X156.0Y-72.5
X156.0Y-79.0
X156.8Y-71.3
X156.8Y-98.0
X157.5Y-66.0
X157.5Y-106.5
X158.5Y-67.0
X158.5Y-86.5
X160.5Y-81.5
X165.5Y-48.5
X167.0Y-73.5
X189.5Y-75.5
X190.5Y-133.0
X191.5Y-75.5
X192.5Y-48.0
X198.5Y-48.0
X198.5Y-96.5
X199.2Y-77.0
X202.0Y-58.45
X205.0Y-79.5
X211.5Y-66.0
X287.5Y-119.5
X294.0Y-43.0
X294.0Y-62.0
X294.0Y-81.0
X294.0Y-100.0
T3
X153.38Y-44.03
X153.38Y-46.57
X153.38Y-49.11
X153.38Y-51.65
X153.38Y-54.19
X153.38Y-56.73
X153.38Y-59.27
X153.38Y-61.81
X153.38Y-64.35
X153.38Y-66.89
X153.38Y-69.43
X153.38Y-71.97
X168.62Y-44.03
X168.62Y-46.57
X168.62Y-49.11
X168.62Y-51.65
X168.62Y-54.19
X168.62Y-56.73
X168.62Y-59.27
X168.62Y-61.81
X168.62Y-64.35
X168.62Y-66.89
X168.62Y-69.43
X168.62Y-71.97
X180.38Y-44.03
X180.38Y-46.57
X180.38Y-49.11
X180.38Y-51.65
X180.38Y-54.19
X180.38Y-56.73
X180.38Y-59.27
X180.38Y-61.81
X180.38Y-64.35
X180.38Y-66.89
X180.38Y-69.43
X180.38Y-71.97
X195.62Y-44.03
X195.62Y-46.57
X195.62Y-49.11
X195.62Y-51.65
X195.62Y-54.19
X195.62Y-56.73
X195.62Y-59.27
X195.62Y-61.81
X195.62Y-64.35
X195.62Y-66.89
X195.62Y-69.43
X195.62Y-71.97
T4
X41.6Y-53.7
X41.6Y-72.7
X41.6Y-91.7
X41.6Y-110.7
X48.6Y-54.75
X48.6Y-73.75
X48.6Y-92.75
X48.6Y-111.75
X60.6Y-53.7
X60.6Y-72.7
X60.6Y-91.7
X60.6Y-110.7
X60.6Y-129.7
X67.6Y-54.75
X67.6Y-73.75
X67.6Y-92.75
X67.6Y-111.75
X67.6Y-130.75
X79.6Y-49.2
X79.6Y-68.2
X79.6Y-87.2
X79.6Y-106.2
X79.6Y-125.2
X86.6Y-50.25
X86.6Y-69.25
X86.6Y-88.25
X86.6Y-107.25
X86.6Y-126.25
X98.6Y-45.7
X98.6Y-64.7
X98.6Y-83.7
X98.6Y-102.7
X98.6Y-121.7
X105.6Y-46.75
X105.6Y-65.75
X105.6Y-84.75
X105.6Y-103.75
X105.6Y-122.75
X117.6Y-52.2
X117.6Y-71.2
X117.6Y-90.2
X117.6Y-109.2
X117.6Y-128.2
X124.6Y-53.25
X124.6Y-72.25
X124.6Y-91.25
X124.6Y-110.25
X124.6Y-129.25
X136.6Y-55.7
X136.6Y-74.7
X136.6Y-93.7
X136.6Y-112.7
X137.339Y-131.87
X142.877Y-136.28
X143.6Y-56.75
X143.6Y-75.75
X143.6Y-94.75
X143.6Y-113.75
X153.794Y-141.37
X159.331Y-145.78
X187.585Y-145.77
X194.172Y-143.18
X203.6Y-55.7
X203.6Y-74.7
X203.6Y-93.7
X203.6Y-112.7
X204.039Y-136.27
X210.6Y-56.75
X210.6Y-75.75
X210.6Y-94.75
X210.6Y-113.75
X210.627Y-133.68
X222.6Y-52.2
X222.6Y-71.2
X222.6Y-90.2
X222.6Y-109.2
X222.6Y-128.2
X229.6Y-53.25
X229.6Y-72.25
X229.6Y-91.25
X229.6Y-110.25
X229.6Y-129.25
X241.6Y-45.7
X241.6Y-64.7
X241.6Y-83.7
X241.6Y-102.7
X241.6Y-121.7
X248.6Y-46.75
X248.6Y-65.75
X248.6Y-84.75
X248.6Y-103.75
X248.6Y-122.75
X260.6Y-49.2
X260.6Y-68.2
X260.6Y-87.2
X260.6Y-106.2
X260.6Y-125.2
X267.6Y-50.25
X267.6Y-69.25
X267.6Y-88.25
X267.6Y-107.25
X267.6Y-126.25
X279.6Y-53.7
X279.6Y-72.7
X279.6Y-91.7
X279.6Y-110.7
X279.6Y-129.7
X286.6Y-54.75
X286.6Y-73.75
X286.6Y-92.75
X286.6Y-111.75
X286.6Y-130.75
X298.6Y-53.7
X298.6Y-72.7
X298.6Y-91.7
X298.6Y-110.7
X305.6Y-54.75
X305.6Y-73.75
X305.6Y-92.75
X305.6Y-111.75
T5
X41.0Y-36.0
X41.0Y-130.0
X141.0Y-36.0
X167.0Y-128.0
X182.0Y-128.0
X208.0Y-36.0
X308.0Y-130.0
X308.0Y-36.0
T2
G00X162.012Y-75.7
M15
G01X161.612Y-75.7
M16
G05
G00X163.112Y-80.3
M15
G01X162.713Y-80.3
M16
G05
G00X167.112Y-80.3
M15
G01X166.713Y-80.3
M16
G05
G00X170.112Y-80.3
M15
G01X169.713Y-80.3
M16
G05
G00X178.887Y-75.7
M15
G01X179.287Y-75.7
M16
G05
G00X181.887Y-75.7
M15
G01X182.287Y-75.7
M16
G05
G00X185.887Y-75.7
M15
G01X186.287Y-75.7
M16
G05
G00X186.987Y-80.3
M15
G01X187.387Y-80.3
M16
G05
M30
