%TF.GenerationSoftware,KiCad,Pcbnew,10.0.5*%
%TF.CreationDate,2026-07-25T08:51:03-04:00*%
%TF.ProjectId,ghost_keyboard,67686f73-745f-46b6-9579-626f6172642e,rev?*%
%TF.SameCoordinates,Original*%
%TF.FileFunction,Soldermask,Top*%
%TF.FilePolarity,Negative*%
%FSLAX46Y46*%
G04 Gerber Fmt 4.6, Leading zero omitted, Abs format (unit mm)*
G04 Created by KiCad (PCBNEW 10.0.5) date 2026-07-25 08:51:03*
%MOMM*%
%LPD*%
G01*
G04 APERTURE LIST*
G04 Aperture macros list*
%AMHorizOval*
0 Thick line with rounded ends*
0 $1 width*
0 $2 $3 position (X,Y) of the first rounded end (center of the circle)*
0 $4 $5 position (X,Y) of the second rounded end (center of the circle)*
0 Add line between two ends*
20,1,$1,$2,$3,$4,$5,0*
0 Add two circle primitives to create the rounded ends*
1,1,$1,$2,$3*
1,1,$1,$4,$5*%
G04 Aperture macros list end*
%ADD10C,1.700000*%
%ADD11C,4.000000*%
%ADD12C,0.600000*%
%ADD13C,5.600000*%
%ADD14C,0.800000*%
%ADD15O,2.000000X1.600000*%
%ADD16O,2.000000X2.400000*%
%ADD17HorizOval,2.000000X-0.100000X0.173205X0.100000X-0.173205X0*%
%ADD18HorizOval,2.000000X-0.100000X-0.173205X0.100000X0.173205X0*%
G04 APERTURE END LIST*
D10*
%TO.C,SW50*%
X221920000Y-104500000D03*
D11*
X227000000Y-104500000D03*
D10*
X232080000Y-104500000D03*
%TD*%
%TO.C,SW19*%
X40920000Y-106000000D03*
D11*
X46000000Y-106000000D03*
D10*
X51080000Y-106000000D03*
%TD*%
%TO.C,SW28*%
X116920000Y-123500000D03*
D11*
X122000000Y-123500000D03*
D10*
X127080000Y-123500000D03*
%TD*%
%TO.C,SW16*%
X97920000Y-79000000D03*
D11*
X103000000Y-79000000D03*
D10*
X108080000Y-79000000D03*
%TD*%
%TO.C,SW8*%
X59920000Y-68000000D03*
D11*
X65000000Y-68000000D03*
D10*
X70080000Y-68000000D03*
%TD*%
%TO.C,SW38*%
X221920000Y-66500000D03*
D11*
X227000000Y-66500000D03*
D10*
X232080000Y-66500000D03*
%TD*%
%TO.C,SW10*%
X97920000Y-60000000D03*
D11*
X103000000Y-60000000D03*
D10*
X108080000Y-60000000D03*
%TD*%
%TO.C,SW24*%
X135920000Y-108000000D03*
D11*
X141000000Y-108000000D03*
D10*
X146080000Y-108000000D03*
%TD*%
%TO.C,SW48*%
X297920000Y-87000000D03*
D11*
X303000000Y-87000000D03*
D10*
X308080000Y-87000000D03*
%TD*%
%TO.C,SW54*%
X297920000Y-106000000D03*
D11*
X303000000Y-106000000D03*
D10*
X308080000Y-106000000D03*
%TD*%
%TO.C,SW46*%
X259920000Y-82500000D03*
D11*
X265000000Y-82500000D03*
D10*
X270080000Y-82500000D03*
%TD*%
D12*
%TO.C,REF\u002A\u002A*%
X173000000Y-55500000D03*
X173000000Y-54500000D03*
X173000000Y-53500000D03*
X173000000Y-52500000D03*
X173000000Y-51500000D03*
X173000000Y-50500000D03*
X173000000Y-49500000D03*
X173000000Y-48500000D03*
%TD*%
D10*
%TO.C,SW23*%
X116920000Y-104500000D03*
D11*
X122000000Y-104500000D03*
D10*
X127080000Y-104500000D03*
%TD*%
%TO.C,SW5*%
X116920000Y-47500000D03*
D11*
X122000000Y-47500000D03*
D10*
X127080000Y-47500000D03*
%TD*%
%TO.C,SW36*%
X297920000Y-49000000D03*
D11*
X303000000Y-49000000D03*
D10*
X308080000Y-49000000D03*
%TD*%
%TO.C,SW55*%
X184646109Y-142040000D03*
D11*
X189045518Y-139500000D03*
D10*
X193444927Y-136960000D03*
%TD*%
D13*
%TO.C,REF\u002A\u002A*%
X141000000Y-36000000D03*
%TD*%
D14*
%TO.C,J2*%
X177487500Y-78000000D03*
X184487500Y-78000000D03*
D15*
X187187500Y-80300000D03*
X186087500Y-75700000D03*
X182087500Y-75700000D03*
X179087500Y-75700000D03*
%TD*%
D13*
%TO.C,REF\u002A\u002A*%
X308000000Y-130000000D03*
%TD*%
D10*
%TO.C,SW15*%
X78920000Y-82500000D03*
D11*
X84000000Y-82500000D03*
D10*
X89080000Y-82500000D03*
%TD*%
%TO.C,SW20*%
X59920000Y-106000000D03*
D11*
X65000000Y-106000000D03*
D10*
X70080000Y-106000000D03*
%TD*%
%TO.C,SW13*%
X40920000Y-87000000D03*
D11*
X46000000Y-87000000D03*
D10*
X51080000Y-87000000D03*
%TD*%
D13*
%TO.C,REF\u002A\u002A*%
X167000000Y-128000000D03*
%TD*%
D10*
%TO.C,SW40*%
X259920000Y-63500000D03*
D11*
X265000000Y-63500000D03*
D10*
X270080000Y-63500000D03*
%TD*%
%TO.C,SW9*%
X78920000Y-63500000D03*
D11*
X84000000Y-63500000D03*
D10*
X89080000Y-63500000D03*
%TD*%
D13*
%TO.C,REF\u002A\u002A*%
X41000000Y-130000000D03*
%TD*%
D10*
%TO.C,SW34*%
X259920000Y-44500000D03*
D11*
X265000000Y-44500000D03*
D10*
X270080000Y-44500000D03*
%TD*%
%TO.C,SW26*%
X78920000Y-120500000D03*
D11*
X84000000Y-120500000D03*
D10*
X89080000Y-120500000D03*
%TD*%
%TO.C,SW11*%
X116920000Y-66500000D03*
D11*
X122000000Y-66500000D03*
D10*
X127080000Y-66500000D03*
%TD*%
%TO.C,SW49*%
X202920000Y-108000000D03*
D11*
X208000000Y-108000000D03*
D10*
X213080000Y-108000000D03*
%TD*%
%TO.C,SW41*%
X278920000Y-68000000D03*
D11*
X284000000Y-68000000D03*
D10*
X289080000Y-68000000D03*
%TD*%
%TO.C,SW25*%
X59920000Y-125000000D03*
D11*
X65000000Y-125000000D03*
D10*
X70080000Y-125000000D03*
%TD*%
%TO.C,SW51*%
X240920000Y-98000000D03*
D11*
X246000000Y-98000000D03*
D10*
X251080000Y-98000000D03*
%TD*%
D13*
%TO.C,REF\u002A\u002A*%
X41000000Y-36000000D03*
%TD*%
D10*
%TO.C,SW57*%
X221920000Y-123500000D03*
D11*
X227000000Y-123500000D03*
D10*
X232080000Y-123500000D03*
%TD*%
%TO.C,SW53*%
X278920000Y-106000000D03*
D11*
X284000000Y-106000000D03*
D10*
X289080000Y-106000000D03*
%TD*%
%TO.C,SW4*%
X97920000Y-41000000D03*
D11*
X103000000Y-41000000D03*
D10*
X108080000Y-41000000D03*
%TD*%
D14*
%TO.C,J1*%
X171512500Y-78000000D03*
X164512500Y-78000000D03*
D15*
X161812500Y-75700000D03*
X162912500Y-80300000D03*
X166912500Y-80300000D03*
X169912500Y-80300000D03*
%TD*%
D10*
%TO.C,SW45*%
X240920000Y-79000000D03*
D11*
X246000000Y-79000000D03*
D10*
X251080000Y-79000000D03*
%TD*%
%TO.C,SW3*%
X78920000Y-44500000D03*
D11*
X84000000Y-44500000D03*
D10*
X89080000Y-44500000D03*
%TD*%
%TO.C,SW32*%
X221920000Y-47500000D03*
D11*
X227000000Y-47500000D03*
D10*
X232080000Y-47500000D03*
%TD*%
%TO.C,SW27*%
X97920000Y-117000000D03*
D11*
X103000000Y-117000000D03*
D10*
X108080000Y-117000000D03*
%TD*%
%TO.C,SW6*%
X135920000Y-51000000D03*
D11*
X141000000Y-51000000D03*
D10*
X146080000Y-51000000D03*
%TD*%
%TO.C,SW22*%
X97920000Y-98000000D03*
D11*
X103000000Y-98000000D03*
D10*
X108080000Y-98000000D03*
%TD*%
D13*
%TO.C,REF\u002A\u002A*%
X207999999Y-35999999D03*
%TD*%
%TO.C,REF\u002A\u002A*%
X308000001Y-35999999D03*
%TD*%
D10*
%TO.C,SW1*%
X40920000Y-49000000D03*
D11*
X46000000Y-49000000D03*
D10*
X51080000Y-49000000D03*
%TD*%
%TO.C,SW43*%
X202920000Y-89000000D03*
D11*
X208000000Y-89000000D03*
D10*
X213080000Y-89000000D03*
%TD*%
%TO.C,SW47*%
X278920000Y-87000000D03*
D11*
X284000000Y-87000000D03*
D10*
X289080000Y-87000000D03*
%TD*%
%TO.C,SW59*%
X259920000Y-120500000D03*
D11*
X265000000Y-120500000D03*
D10*
X270080000Y-120500000D03*
%TD*%
%TO.C,SW58*%
X240920000Y-117000000D03*
D11*
X246000000Y-117000000D03*
D10*
X251080000Y-117000000D03*
%TD*%
%TO.C,SW21*%
X78920000Y-101500000D03*
D11*
X84000000Y-101500000D03*
D10*
X89080000Y-101500000D03*
%TD*%
%TO.C,SW14*%
X59920000Y-87000000D03*
D11*
X65000000Y-87000000D03*
D10*
X70080000Y-87000000D03*
%TD*%
%TO.C,SW52*%
X259920000Y-101500000D03*
D11*
X265000000Y-101500000D03*
D10*
X270080000Y-101500000D03*
%TD*%
%TO.C,SW39*%
X240920000Y-60000000D03*
D11*
X246000000Y-60000000D03*
D10*
X251080000Y-60000000D03*
%TD*%
%TO.C,SW2*%
X59920000Y-49000000D03*
D11*
X65000000Y-49000000D03*
D10*
X70080000Y-49000000D03*
%TD*%
D13*
%TO.C,REF\u002A\u002A*%
X182000000Y-128000000D03*
%TD*%
D10*
%TO.C,SW42*%
X297920000Y-68000000D03*
D11*
X303000000Y-68000000D03*
D10*
X308080000Y-68000000D03*
%TD*%
%TO.C,SW30*%
X155555073Y-136960000D03*
D11*
X159954482Y-139500000D03*
D10*
X164353891Y-142040000D03*
%TD*%
%TO.C,SW56*%
X201100591Y-132540000D03*
D11*
X205500000Y-130000000D03*
D10*
X209899409Y-127460000D03*
%TD*%
D12*
%TO.C,REF\u002A\u002A*%
X176000000Y-123500000D03*
X176000000Y-122500000D03*
X176000000Y-121500000D03*
X176000000Y-120500000D03*
X176000000Y-119500000D03*
X176000000Y-118500000D03*
X176000000Y-117500000D03*
X176000000Y-116500000D03*
%TD*%
D10*
%TO.C,SW35*%
X278920000Y-49000000D03*
D11*
X284000000Y-49000000D03*
D10*
X289080000Y-49000000D03*
%TD*%
D12*
%TO.C,REF\u002A\u002A*%
X173000000Y-123500000D03*
X173000000Y-122500000D03*
X173000000Y-121500000D03*
X173000000Y-120500000D03*
X173000000Y-119500000D03*
X173000000Y-118500000D03*
X173000000Y-117500000D03*
X173000000Y-116500000D03*
%TD*%
D10*
%TO.C,SW29*%
X139100591Y-127460000D03*
D11*
X143500000Y-130000000D03*
D10*
X147899409Y-132540000D03*
%TD*%
%TO.C,SW18*%
X135920000Y-89000000D03*
D11*
X141000000Y-89000000D03*
D10*
X146080000Y-89000000D03*
%TD*%
%TO.C,SW17*%
X116920000Y-85500000D03*
D11*
X122000000Y-85500000D03*
D10*
X127080000Y-85500000D03*
%TD*%
%TO.C,SW37*%
X202920000Y-70000000D03*
D11*
X208000000Y-70000000D03*
D10*
X213080000Y-70000000D03*
%TD*%
%TO.C,SW44*%
X221920000Y-85500000D03*
D11*
X227000000Y-85500000D03*
D10*
X232080000Y-85500000D03*
%TD*%
%TO.C,SW12*%
X135920000Y-70000000D03*
D11*
X141000000Y-70000000D03*
D10*
X146080000Y-70000000D03*
%TD*%
%TO.C,SW7*%
X40920000Y-68000000D03*
D11*
X46000000Y-68000000D03*
D10*
X51080000Y-68000000D03*
%TD*%
D12*
%TO.C,REF\u002A\u002A*%
X176000000Y-55500000D03*
X176000000Y-54500000D03*
X176000000Y-53500000D03*
X176000000Y-52500000D03*
X176000000Y-51500000D03*
X176000000Y-50500000D03*
X176000000Y-49500000D03*
X176000000Y-48500000D03*
%TD*%
D10*
%TO.C,SW60*%
X278920000Y-125000000D03*
D11*
X284000000Y-125000000D03*
D10*
X289080000Y-125000000D03*
%TD*%
%TO.C,SW31*%
X202920000Y-51000000D03*
D11*
X208000000Y-51000000D03*
D10*
X213080000Y-51000000D03*
%TD*%
%TO.C,SW33*%
X240920000Y-41000000D03*
D11*
X246000000Y-41000000D03*
D10*
X251080000Y-41000000D03*
%TD*%
D16*
%TO.C,D108*%
X284000000Y-82000000D03*
%TD*%
%TO.C,D103*%
X303000000Y-63000000D03*
%TD*%
%TO.C,D100*%
X246000000Y-55000000D03*
%TD*%
%TO.C,D105*%
X227000000Y-80500000D03*
%TD*%
%TO.C,D118*%
X227000000Y-118500000D03*
%TD*%
%TO.C,D63*%
X65000000Y-44000000D03*
%TD*%
%TO.C,D111*%
X227000000Y-99500000D03*
%TD*%
%TO.C,D85*%
X141000000Y-103000000D03*
%TD*%
%TO.C,D98*%
X208000000Y-65000000D03*
%TD*%
%TO.C,D106*%
X246000000Y-74000000D03*
%TD*%
%TO.C,D62*%
X46000000Y-44000000D03*
%TD*%
%TO.C,D86*%
X65000000Y-120000000D03*
%TD*%
%TO.C,D79*%
X141000000Y-84000000D03*
%TD*%
%TO.C,D101*%
X265000000Y-58500000D03*
%TD*%
%TO.C,D65*%
X103000000Y-36000000D03*
%TD*%
%TO.C,D104*%
X208000000Y-84000000D03*
%TD*%
D17*
%TO.C,D116*%
X186545518Y-135169873D03*
%TD*%
D16*
%TO.C,D67*%
X141000000Y-46000000D03*
%TD*%
%TO.C,D99*%
X227000000Y-61500000D03*
%TD*%
%TO.C,D120*%
X265000000Y-115500000D03*
%TD*%
%TO.C,D87*%
X84000000Y-115500000D03*
%TD*%
%TO.C,D88*%
X103000000Y-112000000D03*
%TD*%
%TO.C,D89*%
X122000000Y-118500000D03*
%TD*%
%TO.C,D76*%
X84000000Y-77500000D03*
%TD*%
%TO.C,D107*%
X265000000Y-77500000D03*
%TD*%
%TO.C,D83*%
X103000000Y-93000000D03*
%TD*%
%TO.C,D110*%
X208000000Y-103000000D03*
%TD*%
%TO.C,D75*%
X65000000Y-82000000D03*
%TD*%
D17*
%TO.C,D117*%
X202999999Y-125669873D03*
%TD*%
D16*
%TO.C,D80*%
X46000000Y-101000000D03*
%TD*%
%TO.C,D69*%
X65000000Y-63000000D03*
%TD*%
%TO.C,D74*%
X46000000Y-82000000D03*
%TD*%
%TO.C,D102*%
X284000000Y-63000000D03*
%TD*%
%TO.C,D72*%
X122000000Y-61500000D03*
%TD*%
%TO.C,D112*%
X246000000Y-93000000D03*
%TD*%
%TO.C,D109*%
X303000000Y-82000000D03*
%TD*%
%TO.C,D78*%
X122000000Y-80500000D03*
%TD*%
%TO.C,D82*%
X84000000Y-96500000D03*
%TD*%
%TO.C,D66*%
X122000000Y-42500000D03*
%TD*%
%TO.C,D121*%
X284000000Y-120000000D03*
%TD*%
%TO.C,D115*%
X303000000Y-101000000D03*
%TD*%
%TO.C,D81*%
X65000000Y-101000000D03*
%TD*%
%TO.C,D114*%
X284000000Y-101000000D03*
%TD*%
%TO.C,D119*%
X246000000Y-112000000D03*
%TD*%
%TO.C,D92*%
X208000000Y-46000000D03*
%TD*%
D18*
%TO.C,D90*%
X146000000Y-125669873D03*
%TD*%
D16*
%TO.C,D113*%
X265000000Y-96500000D03*
%TD*%
%TO.C,D73*%
X141000000Y-65000000D03*
%TD*%
%TO.C,D68*%
X46000000Y-63000000D03*
%TD*%
%TO.C,D94*%
X246000000Y-36000000D03*
%TD*%
D18*
%TO.C,D91*%
X162454482Y-135169874D03*
%TD*%
D16*
%TO.C,D95*%
X265000000Y-39500000D03*
%TD*%
%TO.C,D84*%
X122000000Y-99500000D03*
%TD*%
%TO.C,D96*%
X284000000Y-44000000D03*
%TD*%
%TO.C,D97*%
X303000000Y-44000000D03*
%TD*%
%TO.C,D93*%
X227000000Y-42500000D03*
%TD*%
%TO.C,D70*%
X84000000Y-58500000D03*
%TD*%
%TO.C,D77*%
X103000000Y-74000000D03*
%TD*%
%TO.C,D64*%
X84000000Y-39500000D03*
%TD*%
%TO.C,D71*%
X103000000Y-55000000D03*
%TD*%
M02*
