M48
; DRILL file KiCad 10.0.5 date 2026-07-25T08:51:23
; FORMAT={-:-/ absolute / metric / decimal}
; #@! TF.CreationDate,2026-07-25T08:51:23-04:00
; #@! TF.GenerationSoftware,Kicad,Pcbnew,10.0.5
; #@! TF.FileFunction,Plated,1,2,PTH
FMAT,2
METRIC
; #@! TA.AperFunction,Plated,PTH,ViaDrill
T1C0.300
; #@! TA.AperFunction,Plated,PTH,ComponentDrill
T2C0.900
; #@! TA.AperFunction,Plated,PTH,ComponentDrill
T3C1.000
; #@! TA.AperFunction,Plated,PTH,ComponentDrill
T4C3.000
; #@! TA.AperFunction,Plated,PTH,ComponentDrill
T5C3.200
%
G90
G05
T1
X50.0Y-78.0
X50.0Y-97.0
X52.5Y-42.55
X52.5Y-62.0
X52.5Y-81.0
X52.5Y-100.0
X68.5Y-119.825
X131.5Y-73.3
X148.5Y-84.0
X148.5Y-103.0
X150.3Y-56.3
X151.5Y-129.0
X156.8Y-71.3
X156.8Y-79.0
X157.5Y-54.2
X157.5Y-106.5
X158.5Y-56.7
X158.5Y-86.5
X164.3Y-84.9
X167.0Y-73.5
X191.0Y-75.0
X191.7Y-73.1
X191.949Y-94.951
X194.0Y-130.6
X197.8Y-63.1
X198.4Y-46.0
X198.5Y-96.5
X199.3Y-48.6
X199.3Y-74.2
X200.0Y-66.9
X200.0Y-70.7
X202.0Y-79.0
X210.7Y-61.2
X218.0Y-73.0
X222.5Y-56.5
X287.5Y-119.5
X294.0Y-43.0
X294.0Y-62.0
X294.0Y-81.0
X294.0Y-100.0
T3
X153.38Y-44.03
X153.38Y-46.57
X153.38Y-49.11
X153.38Y-51.65
X153.38Y-54.19
X153.38Y-56.73
X153.38Y-59.27
X153.38Y-61.81
X153.38Y-64.35
X153.38Y-66.89
X153.38Y-69.43
X153.38Y-71.97
X168.62Y-44.03
X168.62Y-46.57
X168.62Y-49.11
X168.62Y-51.65
X168.62Y-54.19
X168.62Y-56.73
X168.62Y-59.27
X168.62Y-61.81
X168.62Y-64.35
X168.62Y-66.89
X168.62Y-69.43
X168.62Y-71.97
X180.38Y-44.03
X180.38Y-46.57
X180.38Y-49.11
X180.38Y-51.65
X180.38Y-54.19
X180.38Y-56.73
X180.38Y-59.27
X180.38Y-61.81
X180.38Y-64.35
X180.38Y-66.89
X180.38Y-69.43
X180.38Y-71.97
X195.62Y-44.03
X195.62Y-46.57
X195.62Y-49.11
X195.62Y-51.65
X195.62Y-54.19
X195.62Y-56.73
X195.62Y-59.27
X195.62Y-61.81
X195.62Y-64.35
X195.62Y-66.89
X195.62Y-69.43
X195.62Y-71.97
T4
X43.46Y-54.08
X43.46Y-73.08
X43.46Y-92.08
X43.46Y-111.08
X49.81Y-51.54
X49.81Y-70.54
X49.81Y-89.54
X49.81Y-108.54
X62.46Y-54.08
X62.46Y-73.08
X62.46Y-92.08
X62.46Y-111.08
X62.46Y-130.08
X68.81Y-51.54
X68.81Y-70.54
X68.81Y-89.54
X68.81Y-108.54
X68.81Y-127.54
X81.46Y-49.58
X81.46Y-68.58
X81.46Y-87.58
X81.46Y-106.58
X81.46Y-125.58
X87.81Y-47.04
X87.81Y-66.04
X87.81Y-85.04
X87.81Y-104.04
X87.81Y-123.04
X100.46Y-46.08
X100.46Y-65.08
X100.46Y-84.08
X100.46Y-103.08
X100.46Y-122.08
X106.81Y-43.54
X106.81Y-62.54
X106.81Y-81.54
X106.81Y-100.54
X106.81Y-119.54
X119.46Y-52.58
X119.46Y-71.58
X119.46Y-90.58
X119.46Y-109.58
X119.46Y-128.58
X125.81Y-50.04
X125.81Y-69.04
X125.81Y-88.04
X125.81Y-107.04
X125.81Y-126.04
X138.46Y-56.08
X138.46Y-75.08
X138.46Y-94.08
X138.46Y-113.08
X138.76Y-133.129
X144.81Y-53.54
X144.81Y-72.54
X144.81Y-91.54
X144.81Y-110.54
X145.53Y-134.105
X155.215Y-142.629
X161.984Y-143.605
X189.386Y-145.169
X193.615Y-139.795
X205.46Y-56.08
X205.46Y-75.08
X205.46Y-94.08
X205.46Y-113.08
X205.84Y-135.669
X210.07Y-130.295
X211.81Y-53.54
X211.81Y-72.54
X211.81Y-91.54
X211.81Y-110.54
X224.46Y-52.58
X224.46Y-71.58
X224.46Y-90.58
X224.46Y-109.58
X224.46Y-128.58
X230.81Y-50.04
X230.81Y-69.04
X230.81Y-88.04
X230.81Y-107.04
X230.81Y-126.04
X243.46Y-46.08
X243.46Y-65.08
X243.46Y-84.08
X243.46Y-103.08
X243.46Y-122.08
X249.81Y-43.54
X249.81Y-62.54
X249.81Y-81.54
X249.81Y-100.54
X249.81Y-119.54
X262.46Y-49.58
X262.46Y-68.58
X262.46Y-87.58
X262.46Y-106.58
X262.46Y-125.58
X268.81Y-47.04
X268.81Y-66.04
X268.81Y-85.04
X268.81Y-104.04
X268.81Y-123.04
X281.46Y-54.08
X281.46Y-73.08
X281.46Y-92.08
X281.46Y-111.08
X281.46Y-130.08
X287.81Y-51.54
X287.81Y-70.54
X287.81Y-89.54
X287.81Y-108.54
X287.81Y-127.54
X300.46Y-54.08
X300.46Y-73.08
X300.46Y-92.08
X300.46Y-111.08
X306.81Y-51.54
X306.81Y-70.54
X306.81Y-89.54
X306.81Y-108.54
T5
X41.0Y-36.0
X41.0Y-130.0
X141.0Y-36.0
X167.0Y-128.0
X182.0Y-128.0
X208.0Y-36.0
X308.0Y-130.0
X308.0Y-36.0
T2
G00X162.012Y-75.7
M15
G01X161.612Y-75.7
M16
G05
G00X163.112Y-80.3
M15
G01X162.713Y-80.3
M16
G05
G00X167.112Y-80.3
M15
G01X166.713Y-80.3
M16
G05
G00X170.112Y-80.3
M15
G01X169.713Y-80.3
M16
G05
G00X178.887Y-75.7
M15
G01X179.287Y-75.7
M16
G05
G00X181.887Y-75.7
M15
G01X182.287Y-75.7
M16
G05
G00X185.887Y-75.7
M15
G01X186.287Y-75.7
M16
G05
G00X186.987Y-80.3
M15
G01X187.387Y-80.3
M16
G05
M30
